<svg width="14.000977" height="13.313965" viewBox="0 0 14.001 13.314" fill="none" xmlns="http://www.w3.org/2000/svg" xmlns:xlink="http://www.w3.org/1999/xlink">
	<desc>
			Created with Pixso.
	</desc>
	<defs/>
	<path id="Vector" d="M10.58 5.64L6.63 1.69C6.45 1.5 6.35 1.25 6.35 0.99C6.35 0.72 6.46 0.47 6.64 0.29C6.83 0.1 7.08 0 7.34 0C7.6 -0.01 7.86 0.09 8.04 0.28L13.7 5.93C13.8 6.03 13.87 6.14 13.92 6.26C13.97 6.38 14 6.51 14 6.64C14 6.77 13.97 6.9 13.92 7.02C13.87 7.14 13.8 7.25 13.7 7.35L8.04 13C7.95 13.1 7.84 13.18 7.72 13.23C7.6 13.28 7.47 13.31 7.33 13.31C7.2 13.31 7.07 13.29 6.95 13.23C6.82 13.18 6.71 13.11 6.62 13.02C6.52 12.92 6.45 12.81 6.4 12.69C6.35 12.56 6.32 12.43 6.33 12.3C6.33 12.17 6.35 12.04 6.41 11.91C6.46 11.79 6.54 11.68 6.63 11.59L10.58 7.64L1 7.64C0.73 7.64 0.48 7.53 0.29 7.35C0.1 7.16 0 6.91 0 6.64C0 6.37 0.1 6.12 0.29 5.93C0.48 5.75 0.73 5.64 1 5.64L10.58 5.64Z" fill="#9333EA" fill-opacity="1.000000" fill-rule="nonzero"/>
</svg>
