<svg width="19.957031" height="13.967773" viewBox="0 0 19.957 13.9678" fill="none" xmlns="http://www.w3.org/2000/svg" xmlns:xlink="http://www.w3.org/1999/xlink">
	<desc>
			Created with Pixso.
	</desc>
	<defs/>
	<path id="Vector" d="M15.81 0L4.14 0C1.85 0 0 1.83 0 4.1L0 9.86C0 12.13 1.85 13.96 4.14 13.96L15.81 13.96C18.1 13.96 19.95 12.13 19.95 9.86L19.95 4.1C19.95 1.83 18.1 0 15.81 0L15.81 0ZM13 7.26L7.55 9.83C7.51 9.85 7.48 9.86 7.44 9.86C7.4 9.85 7.37 9.84 7.34 9.82C7.3 9.8 7.28 9.78 7.26 9.74C7.24 9.71 7.23 9.68 7.23 9.64L7.23 4.33C7.23 4.29 7.24 4.26 7.26 4.22C7.28 4.19 7.31 4.16 7.34 4.14C7.37 4.13 7.41 4.11 7.44 4.11C7.48 4.11 7.52 4.12 7.55 4.14L13.01 6.87C13.05 6.89 13.08 6.92 13.1 6.95C13.12 6.99 13.13 7.03 13.13 7.07C13.13 7.11 13.12 7.15 13.09 7.18C13.07 7.22 13.04 7.24 13 7.26L13 7.26Z" fill="#0F172A" fill-opacity="1.000000" fill-rule="nonzero"/>
</svg>
