<svg width="20.000000" height="16.000000" viewBox="0 0 20 16" fill="none" xmlns="http://www.w3.org/2000/svg" xmlns:xlink="http://www.w3.org/1999/xlink">
	<desc>
			Created with Pixso.
	</desc>
	<defs/>
	<path id="Vector" d="M20 1.89C19.25 2.21 18.45 2.43 17.64 2.52C18.49 2.02 19.13 1.23 19.44 0.29C18.64 0.76 17.75 1.09 16.84 1.27C16.45 0.87 15.98 0.54 15.47 0.32C14.96 0.1 14.4 -0.01 13.84 0C11.58 0 9.74 1.81 9.74 4.04C9.74 4.35 9.77 4.66 9.84 4.95C8.22 4.88 6.63 4.46 5.17 3.74C3.72 3.01 2.43 1.99 1.39 0.73C1.02 1.35 0.83 2.05 0.83 2.76C0.83 3.43 1 4.09 1.32 4.68C1.64 5.26 2.1 5.76 2.66 6.13C2.01 6.11 1.37 5.93 0.8 5.62L0.8 5.67C0.8 7.63 2.22 9.26 4.09 9.63C3.74 9.73 3.37 9.77 3.01 9.77C2.75 9.77 2.49 9.75 2.24 9.7C2.51 10.51 3.02 11.21 3.7 11.71C4.39 12.22 5.22 12.49 6.07 12.51C4.61 13.63 2.82 14.24 0.97 14.23C0.64 14.23 0.32 14.21 0 14.18C1.88 15.37 4.06 16 6.28 16C13.83 16 17.96 9.84 17.96 4.5L17.94 3.98C18.75 3.41 19.44 2.7 20 1.89Z" fill="#0F172A" fill-opacity="1.000000" fill-rule="nonzero"/>
</svg>
