<svg width="24.000000" height="24.000000" viewBox="0 0 24 24" fill="none" xmlns="http://www.w3.org/2000/svg" xmlns:xlink="http://www.w3.org/1999/xlink">
	<desc>
			Created with Pixso.
	</desc>
	<defs>
		<clipPath id="clip27_6056">
			<rect id="icon / jam-icons / outline &amp; logos / instagram" rx="0.000000" width="23.000000" height="23.000000" transform="translate(0.500000 0.500000)" fill="white" fill-opacity="0"/>
		</clipPath>
	</defs>
	<rect id="icon / jam-icons / outline &amp; logos / instagram" rx="0.000000" width="23.000000" height="23.000000" transform="translate(0.500000 0.500000)" fill="#FFFFFF" fill-opacity="0"/>
	<g clip-path="url(#clip27_6056)">
		<path id="Vector" d="M16.01 2L7.94 2C6.37 2 4.85 2.62 3.74 3.74C2.62 4.85 2 6.37 2 7.94L2 16.01C2 17.59 2.62 19.1 3.74 20.22C4.85 21.33 6.37 21.96 7.94 21.96L16.01 21.96C17.59 21.96 19.1 21.33 20.22 20.22C21.33 19.1 21.96 17.59 21.96 16.01L21.96 7.94C21.96 6.37 21.33 4.85 20.22 3.74C19.1 2.62 17.59 2 16.01 2L16.01 2ZM19.95 16.01C19.95 16.53 19.85 17.04 19.65 17.52C19.45 18 19.16 18.43 18.8 18.8C18.43 19.16 18 19.45 17.52 19.65C17.04 19.85 16.53 19.95 16.01 19.95L7.94 19.95C6.9 19.95 5.9 19.54 5.16 18.8C4.42 18.06 4 17.06 4 16.01L4 7.94C4 6.9 4.42 5.9 5.16 5.16C5.9 4.42 6.9 4 7.94 4L16.01 4C17.06 4 18.06 4.42 18.8 5.16C19.54 5.9 19.95 6.9 19.95 7.94L19.95 16.01L19.95 16.01Z" fill="#0F172A" fill-opacity="1.000000" fill-rule="nonzero"/>
		<path id="Vector" d="M11.98 6.81C10.61 6.82 9.3 7.36 8.33 8.33C7.36 9.3 6.82 10.61 6.81 11.98C6.82 13.35 7.36 14.66 8.33 15.63C9.3 16.59 10.61 17.14 11.98 17.14C13.35 17.14 14.66 16.59 15.63 15.63C16.6 14.66 17.14 13.35 17.14 11.98C17.14 10.61 16.59 9.3 15.63 8.33C14.66 7.36 13.35 6.82 11.98 6.81L11.98 6.81ZM11.98 15.13C11.14 15.13 10.34 14.8 9.75 14.21C9.15 13.62 8.82 12.81 8.82 11.98C8.82 11.14 9.15 10.34 9.75 9.75C10.34 9.16 11.14 8.82 11.98 8.82C12.81 8.82 13.62 9.16 14.21 9.75C14.8 10.34 15.13 11.14 15.13 11.98C15.13 12.81 14.8 13.62 14.21 14.21C13.62 14.8 12.81 15.13 11.98 15.13Z" fill="#0F172A" fill-opacity="1.000000" fill-rule="nonzero"/>
		<path id="Vector" d="M18.39 6.85C18.39 7.54 17.83 8.09 17.15 8.09C16.47 8.09 15.91 7.54 15.91 6.85C15.91 6.17 16.47 5.62 17.15 5.62C17.83 5.62 18.39 6.17 18.39 6.85Z" fill="#0F172A" fill-opacity="1.000000" fill-rule="evenodd"/>
	</g>
</svg>
