<svg width="19.958984" height="19.071777" viewBox="0 0 19.959 19.0718" fill="none" xmlns="http://www.w3.org/2000/svg" xmlns:xlink="http://www.w3.org/1999/xlink">
	<desc>
			Created with Pixso.
	</desc>
	<defs/>
	<path id="Vector" d="M19.95 11.69L19.95 19.07L15.68 19.07L15.68 12.18C15.68 10.45 15.06 9.27 13.51 9.27C12.33 9.27 11.62 10.07 11.31 10.84C11.2 11.11 11.17 11.5 11.17 11.88L11.17 19.07L6.89 19.07C6.89 19.07 6.95 7.41 6.89 6.2L11.17 6.2L11.17 8.02L11.14 8.06L11.17 8.06L11.17 8.02C11.74 7.15 12.75 5.9 15.03 5.9C17.84 5.9 19.95 7.74 19.95 11.69ZM2.42 0C0.95 0 0 0.95 0 2.22C0 3.45 0.93 4.44 2.36 4.44L2.39 4.44C3.88 4.44 4.81 3.45 4.81 2.22C4.78 0.95 3.88 0 2.42 0L2.42 0ZM0.25 19.07L4.53 19.07L4.53 6.2L0.25 6.2L0.25 19.07Z" fill="#0F172A" fill-opacity="1.000000" fill-rule="nonzero"/>
</svg>
