<svg width="176.158203" height="32.000000" viewBox="0 0 176.158 32" fill="none" xmlns="http://www.w3.org/2000/svg" xmlns:xlink="http://www.w3.org/1999/xlink">
	<desc>
			Created with Pixso.
	</desc>
	<defs/>
	<path id="Vector" d="M22.68 26.48L1.26 11.71C-0.91 10.21 -0.17 7.1 2.54 6.36L25.29 0.19C25.78 0.01 26.29 -0.04 26.8 0.02C27.31 0.09 27.8 0.27 28.22 0.56C28.64 0.85 28.99 1.24 29.23 1.69C29.47 2.15 29.6 2.65 29.61 3.16L28.26 24.11C28.1 26.59 24.85 27.98 22.68 26.48Z" fill="#FFFFFF" fill-opacity="1.000000" fill-rule="nonzero"/>
	<path id="Vector" d="M15.89 30.13L3.27 5.46C2.98 4.89 2.85 4.26 2.9 3.63C2.95 2.99 3.17 2.39 3.55 1.87C3.92 1.36 4.42 0.96 5.01 0.72C5.59 0.47 6.23 0.39 6.86 0.49L30.24 4.1C30.78 4.18 31.29 4.39 31.73 4.71C32.17 5.03 32.53 5.45 32.78 5.93C33.02 6.42 33.15 6.95 33.15 7.5C33.15 8.04 33.02 8.58 32.78 9.06L22.01 30.13C21.72 30.69 21.28 31.16 20.74 31.49C20.2 31.82 19.58 32 18.95 31.99C18.31 31.99 17.69 31.82 17.15 31.49C16.61 31.16 16.17 30.69 15.89 30.13Z" fill="#FFFFFF" fill-opacity="1.000000" fill-rule="nonzero"/>
	<path id="Vector" d="M23.57 8.72L19.09 8L13.57 9.57L15.77 14.08L20.93 17.81C21.04 17.89 21.16 17.95 21.3 18L23.25 13.98L23.57 8.72Z" fill="#0F172A" fill-opacity="1.000000" fill-rule="nonzero"/>
	<path id="SmartFinder" d="M142.06 12.84Q140.73 14.6 140.73 17.56Q140.73 20.7 142.08 22.47Q142.75 23.33 143.63 23.77Q144.53 24.23 145.67 24.23Q146.63 24.23 147.41 23.87Q148.27 23.47 148.93 22.65L149.1 24L152.15 24L152.15 6L148.75 6L148.75 12.46Q148.17 11.79 147.43 11.44Q146.65 11.08 145.7 11.08Q144.41 11.08 143.42 11.63Q142.65 12.06 142.06 12.84ZM121.62 7.2Q121.43 7.56 121.43 8.03Q121.43 8.51 121.63 8.88Q121.75 9.11 121.95 9.3Q122.05 9.39 122.16 9.47Q122.64 9.79 123.33 9.79Q124.02 9.79 124.49 9.47Q124.6 9.39 124.7 9.3Q124.9 9.11 125.02 8.88Q125.22 8.51 125.22 8.03Q125.22 7.57 125.03 7.21Q124.91 6.97 124.71 6.78Q124.62 6.7 124.53 6.63Q124.05 6.29 123.33 6.29Q122.57 6.29 122.09 6.65Q122.01 6.71 121.94 6.78Q121.74 6.97 121.62 7.2ZM51.23 18.42Q51.52 18.87 51.52 19.52Q51.52 20.03 51.3 20.42Q51.13 20.72 50.82 20.94Q50.12 21.45 48.86 21.45Q46.88 21.45 46.06 20.48Q45.49 19.79 45.49 18.63L41.96 18.63Q41.96 19.86 42.44 20.88Q42.6 21.22 42.81 21.53Q42.83 21.56 42.84 21.58Q43.69 22.8 45.28 23.51Q46.9 24.23 48.86 24.23Q51.7 24.23 53.38 22.97Q54.1 22.43 54.51 21.7Q55.05 20.75 55.05 19.5Q55.05 18.37 54.61 17.45Q54.28 16.75 53.68 16.17Q52.31 14.83 49.31 13.93Q47.68 13.44 46.84 12.87Q46.25 12.47 46.08 11.94Q46.01 11.72 46.01 11.48Q46.01 11.04 46.18 10.69Q46.35 10.32 46.72 10.04Q47.43 9.5 48.72 9.5Q50.06 9.5 50.8 10.15Q50.98 10.31 51.12 10.51Q51.54 11.1 51.54 11.97L55.05 11.97Q55.05 10.92 54.68 10.02Q54.51 9.61 54.26 9.23Q54.09 8.97 53.89 8.73Q53.16 7.88 52.04 7.36Q50.61 6.7 48.78 6.7Q46.97 6.7 45.51 7.31Q44.05 7.92 43.27 9Q42.95 9.44 42.76 9.93Q42.49 10.65 42.49 11.47Q42.49 12.27 42.75 12.97Q43.36 14.6 45.4 15.7Q46.46 16.27 48.29 16.86Q50.12 17.46 50.82 17.99Q51.07 18.18 51.23 18.42ZM112.04 17.02L118.79 17.02L118.79 14.19L112.04 14.19L112.04 9.78L119.63 9.78L119.63 6.93L108.53 6.93L108.53 24L112.04 24L112.04 17.02ZM104.25 11.32L104.25 8.2L100.86 8.2L100.86 11.32L99.01 11.32L99.01 13.8L100.86 13.8L100.86 20.63Q100.9 22.45 101.82 23.35Q102.73 24.23 104.49 24.23Q105.17 24.23 105.82 24.1Q106.19 24.03 106.54 23.92L106.54 21.36Q106.11 21.44 105.55 21.44Q104.79 21.44 104.52 21.14Q104.25 20.83 104.25 20.13L104.25 13.8L106.42 13.8L106.42 11.32L104.25 11.32ZM60.49 12.73L60.38 11.32L57.21 11.32L57.21 24L60.6 24L60.6 15.03Q60.88 14.5 61.32 14.21Q61.88 13.83 62.68 13.83Q63.72 13.83 64.16 14.33Q64.59 14.82 64.59 15.92L64.59 24L67.98 24L67.97 15.29Q68.27 14.53 68.83 14.17Q69.35 13.83 70.08 13.83Q71.14 13.83 71.56 14.33Q71.99 14.83 71.99 15.91L71.99 24L75.38 24L75.38 15.9Q75.38 13.48 74.38 12.28Q74.23 12.1 74.05 11.95Q73.06 11.08 71.31 11.08Q69.92 11.08 68.9 11.68Q68.09 12.16 67.5 13.01Q67.15 12.27 66.57 11.82Q65.64 11.08 64.13 11.08Q62.76 11.08 61.72 11.68Q61.03 12.07 60.49 12.73ZM84.99 22.86Q85.1 23.54 85.33 24L88.76 24L88.76 23.8Q88.26 22.87 88.25 21.07L88.25 15.57Q88.25 14.02 87.53 12.98Q87.25 12.58 86.87 12.26Q86.84 12.23 86.81 12.2Q85.44 11.08 83.15 11.08Q81.61 11.08 80.36 11.61Q79.12 12.15 78.44 13.08Q78.01 13.68 77.86 14.33Q77.76 14.72 77.76 15.12L81.15 15.12Q81.15 14.65 81.36 14.31Q81.47 14.14 81.64 14Q82.12 13.59 82.98 13.59Q83.87 13.59 84.33 14.04Q84.37 14.08 84.4 14.12Q84.43 14.15 84.45 14.18Q84.85 14.69 84.85 15.52L84.85 16.25L83.29 16.25Q80.47 16.26 78.98 17.34Q78.39 17.76 78.03 18.33Q77.48 19.21 77.48 20.43Q77.48 21.27 77.8 21.95Q78.1 22.62 78.71 23.15Q79 23.41 79.34 23.61Q80.38 24.23 81.79 24.23Q82.97 24.23 83.89 23.74Q84.5 23.41 84.99 22.86ZM96.76 14.4Q97.29 14.4 97.98 14.49L98.02 11.23Q97.53 11.08 96.97 11.08Q96.27 11.08 95.69 11.34Q94.77 11.76 94.15 12.83L94.05 11.32L90.85 11.32L90.85 24L94.24 24L94.24 15.7Q94.4 15.36 94.64 15.11Q95.34 14.4 96.76 14.4ZM131.04 12.78L130.93 11.32L127.74 11.32L127.74 24L131.13 24L131.13 15.05Q131.48 14.46 132 14.15Q132.54 13.83 133.28 13.83Q134.37 13.83 134.83 14.32Q135.3 14.81 135.3 15.89L135.3 24L138.69 24L138.69 15.8Q138.67 13.45 137.68 12.26Q137.53 12.08 137.35 11.92Q136.38 11.08 134.68 11.08Q133.39 11.08 132.39 11.62Q131.63 12.04 131.04 12.78ZM157.13 23.34Q158.6 24.23 160.62 24.23Q162.2 24.23 163.5 23.63Q164.54 23.14 165.24 22.35Q165.41 22.16 165.56 21.94L163.9 20.08Q163.47 20.63 162.91 20.97Q162.03 21.5 160.84 21.5Q159.91 21.5 159.21 21.09Q158.96 20.95 158.75 20.75Q158.53 20.55 158.36 20.32Q157.88 19.67 157.75 18.76L165.83 18.76L165.83 17.37Q165.83 14.36 164.34 12.72Q163.94 12.29 163.47 11.97Q162.15 11.08 160.24 11.08Q158.82 11.08 157.66 11.62Q157.4 11.75 157.15 11.9Q156.73 12.15 156.36 12.48Q155.57 13.18 155.06 14.22Q154.32 15.72 154.32 17.63L154.32 17.96Q154.32 20.07 155.29 21.56Q155.62 22.08 156.07 22.52Q156.56 22.99 157.13 23.34ZM173.66 14.4Q174.19 14.4 174.88 14.49L174.92 11.23Q174.43 11.08 173.87 11.08Q173.17 11.08 172.59 11.34Q171.67 11.76 171.04 12.83L170.95 11.32L167.75 11.32L167.75 24L171.14 24L171.14 15.7Q171.29 15.36 171.54 15.11Q172.24 14.4 173.66 14.4ZM121.63 24L125.03 24L125.03 11.32L121.63 11.32L121.63 24ZM159.11 14.09Q159.59 13.82 160.23 13.82Q161.15 13.82 161.71 14.27Q161.81 14.35 161.89 14.44Q161.91 14.46 161.92 14.47Q162.48 15.08 162.5 16.18L162.5 16.45L157.79 16.45Q157.97 15.18 158.59 14.5Q158.82 14.25 159.11 14.09ZM144.74 20.54Q144.12 19.59 144.12 17.81Q144.12 14.93 145.4 14.14Q145.89 13.83 146.56 13.83Q147.42 13.83 148 14.24Q148.47 14.57 148.75 15.16L148.75 20.16Q148.47 20.75 148 21.08Q147.42 21.49 146.54 21.49Q145.89 21.49 145.41 21.2Q145.02 20.97 144.74 20.54ZM83.53 21.48Q83.06 21.64 82.53 21.64Q81.82 21.64 81.39 21.29Q81.35 21.26 81.31 21.23Q81.12 21.05 81.01 20.83Q80.87 20.55 80.87 20.19L80.88 19.99Q80.93 19.44 81.21 19.07Q81.83 18.23 83.59 18.23L84.85 18.23L84.85 20.41Q84.8 20.51 84.73 20.6Q84.44 21.03 83.92 21.31Q83.73 21.41 83.53 21.48Z" fill="#FFFFFF" fill-opacity="1.000000" fill-rule="evenodd"/>
</svg>
