<svg width="133.000000" height="32.000000" viewBox="0 0 133 32" fill="none" xmlns="http://www.w3.org/2000/svg" xmlns:xlink="http://www.w3.org/1999/xlink">
	<desc>
			Created with Pixso.
	</desc>
	<defs/>
	<path id="Vector" d="M16 32C24.83 32 32 24.83 32 16C32 7.16 24.83 0 16 0C7.16 0 0 7.16 0 16C0 24.83 7.16 32 16 32ZM20.99 7.45C21.23 6.59 20.39 6.08 19.63 6.62L8.95 14.23C8.12 14.82 8.25 16 9.15 16L11.96 16L11.96 15.97L17.44 15.97L12.97 17.55L11 24.54C10.76 25.4 11.6 25.91 12.36 25.37L23.04 17.76C23.87 17.17 23.74 16 22.84 16L18.58 16L20.99 7.45Z" fill="#FFFFFF" fill-opacity="1.000000" fill-rule="evenodd"/>
	<path id="Zoomerr" d="M53.85 21.17L45.25 21.17L53.66 8.95L53.66 6.93L40.86 6.93L40.86 9.78L49.29 9.78L40.85 21.93L40.85 24L53.85 24L53.85 21.17ZM55.79 14.17Q55.07 15.65 55.07 17.54L55.07 17.69Q55.07 20.4 56.38 22.09Q56.53 22.29 56.7 22.47Q57.18 22.99 57.77 23.36Q59.15 24.23 61.08 24.23Q63 24.23 64.38 23.36Q64.96 22.99 65.45 22.47Q65.7 22.19 65.91 21.89Q67.08 20.25 67.08 17.78L67.05 16.92Q66.9 14.68 65.75 13.22Q65.52 12.92 65.24 12.65Q64.79 12.21 64.27 11.9Q62.91 11.08 61.05 11.08Q59.36 11.08 58.06 11.79Q57.97 11.84 57.88 11.89Q57.35 12.2 56.92 12.62Q56.24 13.27 55.79 14.17ZM69.36 14.17Q68.64 15.65 68.64 17.54L68.64 17.69Q68.64 20.4 69.95 22.09Q70.1 22.29 70.27 22.47Q70.76 22.99 71.34 23.36Q72.72 24.23 74.65 24.23Q76.57 24.23 77.95 23.36Q78.53 22.99 79.02 22.47Q79.27 22.19 79.48 21.89Q80.65 20.25 80.65 17.78L80.62 16.92Q80.47 14.68 79.32 13.22Q79.09 12.92 78.81 12.65Q78.36 12.21 77.84 11.9Q76.48 11.08 74.62 11.08Q72.93 11.08 71.63 11.79Q71.54 11.84 71.45 11.89Q70.92 12.2 70.49 12.62Q69.81 13.27 69.36 14.17ZM86.01 12.73L85.91 11.32L82.73 11.32L82.73 24L86.12 24L86.12 15.03Q86.41 14.5 86.85 14.21Q87.4 13.83 88.21 13.83Q89.25 13.83 89.68 14.33Q90.12 14.82 90.12 15.92L90.12 24L93.5 24L93.49 15.29Q93.8 14.53 94.36 14.17Q94.87 13.83 95.6 13.83Q96.67 13.83 97.09 14.33Q97.51 14.83 97.51 15.91L97.51 24L100.91 24L100.91 15.9Q100.91 13.48 99.9 12.28Q99.75 12.1 99.58 11.95Q98.59 11.08 96.83 11.08Q95.45 11.08 94.42 11.68Q93.61 12.16 93.02 13.01Q92.67 12.27 92.1 11.82Q91.17 11.08 89.66 11.08Q88.28 11.08 87.24 11.68Q86.55 12.07 86.01 12.73ZM105.86 23.34Q107.33 24.23 109.35 24.23Q110.93 24.23 112.23 23.63Q113.28 23.14 113.97 22.35Q114.14 22.16 114.29 21.94L112.63 20.08Q112.2 20.63 111.64 20.97Q110.76 21.5 109.57 21.5Q108.64 21.5 107.94 21.09Q107.7 20.95 107.48 20.75Q107.26 20.55 107.09 20.32Q106.61 19.67 106.49 18.76L114.56 18.76L114.56 17.37Q114.56 14.36 113.07 12.72Q112.67 12.29 112.2 11.97Q110.89 11.08 108.97 11.08Q107.55 11.08 106.39 11.62Q106.13 11.75 105.88 11.9Q105.46 12.15 105.09 12.48Q104.3 13.18 103.79 14.22Q103.05 15.72 103.05 17.63L103.05 17.96Q103.05 20.07 104.02 21.56Q104.35 22.08 104.81 22.52Q105.29 22.99 105.86 23.34ZM122.39 14.4Q122.92 14.4 123.61 14.49L123.66 11.23Q123.16 11.08 122.6 11.08Q121.9 11.08 121.32 11.34Q120.4 11.76 119.78 12.83L119.68 11.32L116.48 11.32L116.48 24L119.87 24L119.87 15.7Q120.03 15.36 120.27 15.11Q120.97 14.4 122.39 14.4ZM131.14 14.4Q131.67 14.4 132.36 14.49L132.41 11.23Q131.92 11.08 131.35 11.08Q130.66 11.08 130.08 11.34Q129.16 11.76 128.53 12.83L128.44 11.32L125.24 11.32L125.24 24L128.62 24L128.62 15.7Q128.78 15.36 129.03 15.11Q129.72 14.4 131.14 14.4ZM59.13 20.54Q58.45 19.59 58.45 17.78Q58.45 15.76 59.13 14.79Q59.43 14.36 59.84 14.12Q60.36 13.82 61.05 13.82Q61.75 13.82 62.28 14.13Q62.69 14.37 63 14.8Q63.69 15.77 63.69 17.54Q63.69 19.61 63 20.56Q62.7 20.97 62.29 21.2Q61.77 21.5 61.08 21.5Q60.33 21.5 59.79 21.17Q59.41 20.93 59.13 20.54ZM72.7 20.54Q72.02 19.59 72.02 17.78Q72.02 15.76 72.7 14.79Q73 14.36 73.41 14.12Q73.93 13.82 74.62 13.82Q75.32 13.82 75.85 14.13Q76.26 14.37 76.57 14.8Q77.26 15.77 77.26 17.54Q77.26 19.61 76.57 20.56Q76.27 20.97 75.86 21.2Q75.34 21.5 74.65 21.5Q73.9 21.5 73.36 21.17Q72.98 20.93 72.7 20.54ZM107.84 14.09Q108.32 13.82 108.96 13.82Q109.88 13.82 110.44 14.27Q110.54 14.35 110.62 14.44Q110.64 14.46 110.66 14.47Q111.21 15.08 111.23 16.18L111.23 16.45L106.52 16.45Q106.7 15.18 107.33 14.5Q107.56 14.25 107.84 14.09Z" fill="#FFFFFF" fill-opacity="1.000000" fill-rule="evenodd"/>
</svg>
