<svg width="124.399902" height="32.000000" viewBox="0 0 124.4 32" fill="none" xmlns="http://www.w3.org/2000/svg" xmlns:xlink="http://www.w3.org/1999/xlink">
	<desc>
			Created with Pixso.
	</desc>
	<defs/>
	<path id="Vector" d="M0 16.34L0 16.18L0 16.02L0 15.86L0.01 15.7L0.02 15.54L0.03 15.38L0.04 15.22L0.05 15.06L0.07 14.9L0.08 14.74L0.1 14.58L0.12 14.42L0.14 14.26L0.17 14.1L0.19 13.94L0.22 13.78L0.25 13.62L0.27 13.46L0.31 13.3L0.34 13.15L0.37 12.99L0.41 12.83L0.45 12.67L0.49 12.52L0.53 12.36L0.57 12.2L0.61 12.05L0.66 11.89L0.71 11.73L0.76 11.58L0.81 11.42L0.86 11.27L0.91 11.12L0.97 10.96L1.03 10.81L1.08 10.66L1.14 10.51L1.21 10.35L1.27 10.2L1.34 10.05L1.4 9.9L1.47 9.75L1.54 9.61L1.61 9.46L1.68 9.31L1.76 9.16L1.83 9.02L1.91 8.87L1.99 8.73L2.07 8.58L2.15 8.44L2.24 8.3L2.32 8.16L2.41 8.02L2.49 7.88L2.58 7.74L2.67 7.6L2.77 7.46L2.86 7.33L2.96 7.19L3.05 7.06L3.15 6.92L3.25 6.79L3.35 6.66L3.45 6.53L3.56 6.39L3.66 6.27L3.77 6.14L3.87 6.01L3.98 5.88L4.09 5.76L4.21 5.63L4.32 5.51L4.43 5.39L4.55 5.27L4.66 5.15L4.78 5.03L4.9 4.91L5.02 4.79L5.14 4.68L5.27 4.56L5.39 4.45L5.52 4.34L5.64 4.23L5.77 4.12L5.9 4.01L6.03 3.9L6.16 3.8L6.3 3.69L6.43 3.59L6.56 3.49L6.7 3.39L6.84 3.29L6.97 3.19L7.11 3.09L7.25 3L7.4 2.9L7.54 2.81L7.68 2.72L7.83 2.63L7.97 2.54L8.12 2.45L8.26 2.36L8.41 2.28L8.56 2.2L8.71 2.11L8.86 2.03L9.01 1.95L9.16 1.88L9.32 1.8L9.47 1.73L9.63 1.65L9.78 1.58L9.94 1.51L10.1 1.44L10.26 1.38L10.41 1.31L10.57 1.25L10.73 1.18L10.9 1.12L11.06 1.06L11.22 1.01L11.38 0.95L11.55 0.9L11.71 0.84L11.88 0.79L12.04 0.74L12.21 0.69L12.37 0.65L12.54 0.6L12.71 0.56L12.88 0.52L13.05 0.48L13.21 0.44L13.38 0.4L13.55 0.37L13.72 0.33L13.9 0.3L14.07 0.27L14.24 0.24L14.41 0.21L14.58 0.19L14.76 0.17L14.93 0.14L15.1 0.12L15.27 0.11L15.45 0.09L15.62 0.07L15.8 0.06L15.97 0.05L16.91 0L16.96 4.51L16.99 4.51L17.12 4.51L17.25 4.51L17.38 4.52L17.51 4.52L17.64 4.53L17.77 4.53L17.9 4.54L18.03 4.55L18.16 4.56L18.29 4.57L18.42 4.58L18.55 4.6L18.68 4.61L18.81 4.63L18.94 4.64L19.07 4.66L19.19 4.68L19.32 4.71L19.45 4.73L19.58 4.75L19.71 4.78L19.84 4.8L19.97 4.83L20.09 4.86L20.22 4.89L20.35 4.92L20.47 4.96L20.6 4.99L20.73 5.03L20.85 5.06L20.98 5.1L21.1 5.14L21.23 5.18L21.35 5.22L21.48 5.27L21.6 5.31L21.73 5.36L21.85 5.4L21.97 5.45L22.1 5.5L22.22 5.55L22.34 5.6L22.46 5.65L22.58 5.71L22.7 5.76L22.82 5.82L22.94 5.88L23.06 5.94L23.18 6L23.29 6.06L23.41 6.12L23.53 6.18L23.64 6.25L23.76 6.31L23.87 6.38L23.98 6.45L24.1 6.52L24.21 6.59L24.32 6.66L24.43 6.73L24.54 6.81L24.65 6.88L24.76 6.96L24.87 7.04L24.98 7.12L25.08 7.2L25.19 7.28L25.3 7.36L25.4 7.44L25.5 7.52L25.61 7.61L25.71 7.69L25.81 7.78L25.91 7.87L26.01 7.96L26.11 8.05L26.21 8.14L26.3 8.23L26.4 8.33L26.49 8.42L26.59 8.51L26.68 8.61L26.77 8.71L26.87 8.81L26.96 8.9L27.04 9L27.13 9.1L27.22 9.21L27.31 9.31L27.39 9.41L27.48 9.52L27.56 9.62L27.64 9.73L27.72 9.83L27.8 9.94L27.88 10.05L27.96 10.16L28.04 10.27L28.11 10.38L28.19 10.49L28.26 10.61L28.34 10.72L28.41 10.83L28.48 10.95L28.55 11.07L28.61 11.18L28.68 11.3L28.75 11.42L28.81 11.54L28.87 11.66L28.94 11.78L29 11.9L29.06 12.02L29.12 12.14L29.17 12.26L29.23 12.38L29.28 12.51L29.34 12.63L29.39 12.76L29.44 12.88L29.49 13.01L29.54 13.14L29.59 13.26L29.63 13.39L29.68 13.52L29.72 13.65L29.76 13.78L29.8 13.91L29.84 14.04L29.88 14.17L29.92 14.3L29.95 14.43L29.99 14.56L30.02 14.69L30.05 14.83L30.08 14.96L30.11 15.09L30.14 15.23L30.16 15.36L30.19 15.5L30.21 15.63L30.23 15.77L30.25 15.9L30.27 16.04L30.29 16.17L30.31 16.31L30.32 16.44L30.34 16.58L30.35 16.72L30.36 16.85L30.37 16.99L30.38 17.13L30.38 17.27L30.39 17.4L30.39 17.54L30.39 17.68L30.39 17.82L30.39 17.95L30.39 18.09L30.39 18.23L30.38 18.37L30.38 18.51L30.37 18.64L30.36 18.78L30.35 18.92L30.34 19.06L30.33 19.2L30.31 19.33L30.3 19.47L30.28 19.61L30.26 19.75L30.24 19.88L30.22 20.02L30.2 20.16L30.17 20.3L30.14 20.43L30.12 20.57L30.09 20.71L30.06 20.84L30.03 20.98L29.99 21.11L29.96 21.25L29.92 21.38L29.89 21.52L29.85 21.65L29.81 21.79L29.77 21.92L29.72 22.06L29.68 22.19L29.63 22.32L29.59 22.45L29.54 22.59L29.49 22.72L29.44 22.85L29.38 22.98L29.33 23.11L29.28 23.24L29.22 23.37L29.16 23.5L29.1 23.63L29.04 23.75L28.98 23.88L28.92 24.01L28.85 24.13L28.79 24.26L28.72 24.39L28.65 24.51L28.58 24.63L28.51 24.76L28.44 24.88L28.36 25L28.29 25.12L28.21 25.24L28.13 25.36L28.05 25.48L27.97 25.6L27.89 25.72L27.81 25.83L27.73 25.95L27.64 26.07L27.56 26.18L27.47 26.29L27.38 26.41L27.29 26.52L27.2 26.63L27.11 26.74L27.01 26.85L26.92 26.96L26.82 27.07L26.72 27.18L26.63 27.28L26.53 27.39L26.43 27.49L26.33 27.59L26.22 27.7L26.12 27.8L26.01 27.9L25.91 28L25.8 28.1L25.69 28.19L25.58 28.29L25.47 28.39L25.36 28.48L25.25 28.57L25.14 28.67L25.02 28.76L24.91 28.85L24.79 28.94L24.68 29.02L24.56 29.11L24.44 29.2L24.32 29.28L24.2 29.37L24.08 29.45L23.95 29.53L23.83 29.61L23.71 29.69L23.58 29.77L23.46 29.84L23.33 29.92L23.2 29.99L23.07 30.06L22.94 30.14L22.81 30.21L22.68 30.27L22.55 30.34L22.42 30.41L22.28 30.47L22.15 30.54L22.02 30.6L21.88 30.66L21.74 30.72L21.61 30.78L21.47 30.84L21.33 30.9L21.19 30.95L21.05 31L20.91 31.06L20.77 31.11L20.63 31.16L20.49 31.2L20.35 31.25L20.21 31.3L20.06 31.34L19.92 31.38L19.77 31.42L19.63 31.46L19.48 31.5L19.34 31.54L19.19 31.58L19.05 31.61L18.9 31.64L18.75 31.67L18.6 31.7L18.46 31.73L18.31 31.76L18.16 31.78L18.01 31.81L17.86 31.83L17.71 31.85L17.56 31.87L17.41 31.89L17.26 31.91L17.11 31.92L16.96 31.94L16.81 31.95L16.65 31.96L16.5 31.97L16.35 31.98L16.2 31.98L16.05 31.99L15.89 31.99L15.74 31.99L15.59 32L15.44 31.99L15.29 31.99L15.13 31.99L14.98 31.98L14.83 31.98L14.68 31.97L14.52 31.96L14.37 31.95L14.22 31.93L14.07 31.92L13.91 31.9L13.76 31.88L13.61 31.87L13.46 31.85L13.31 31.82L13.15 31.8L13 31.77L12.85 31.75L12.7 31.72L12.55 31.69L12.4 31.66L12.25 31.63L12.1 31.59L11.95 31.56L11.8 31.52L11.65 31.48L11.5 31.44L11.35 31.4L11.2 31.36L11.06 31.31L10.91 31.27L10.76 31.22L10.62 31.17L10.47 31.12L10.32 31.07L10.18 31.02L10.03 30.96L9.89 30.91L9.75 30.85L9.6 30.79L9.46 30.73L9.32 30.67L9.18 30.61L9.04 30.54L8.89 30.48L8.75 30.41L8.62 30.34L8.48 30.27L8.34 30.2L8.2 30.13L8.07 30.05L7.93 29.98L7.8 29.9L7.66 29.82L7.53 29.74L7.39 29.66L7.26 29.58L7.13 29.49L7 29.41L6.87 29.32L6.74 29.24L6.62 29.15L6.49 29.06L6.36 28.97L6.24 28.87L6.11 28.78L5.99 28.68L5.87 28.59L5.75 28.49L5.62 28.39L5.5 28.29L5.39 28.19L5.27 28.09L5.15 27.98L5.04 27.88L4.92 27.77L4.81 27.66L4.7 27.55L4.58 27.44L4.47 27.33L4.36 27.22L4.26 27.11L4.15 26.99L4.04 26.88L3.94 26.76L3.83 26.65L3.73 26.53L3.63 26.41L3.53 26.29L3.43 26.17L3.33 26.04L3.24 25.92L3.14 25.79L3.05 25.67L2.95 25.54L2.86 25.41L2.77 25.29L2.68 25.16L2.6 25.03L2.51 24.89L2.42 24.76L2.34 24.63L2.26 24.5L2.18 24.36L2.1 24.22L2.02 24.09L1.94 23.95L1.87 23.81L1.79 23.67L1.72 23.53L1.65 23.39L1.58 23.25L1.51 23.11L1.44 22.97L1.38 22.82L1.31 22.68L1.25 22.53L1.19 22.39L1.13 22.24L1.07 22.1L1.01 21.95L0.96 21.8L0.9 21.65L0.85 21.5L0.8 21.35L0.75 21.2L0.7 21.05L0.65 20.9L0.61 20.75L0.57 20.6L0.52 20.44L0.48 20.29L0.45 20.13L0.41 19.98L0.37 19.83L0.34 19.67L0.31 19.51L0.28 19.36L0.25 19.2L0.22 19.05L0.19 18.89L0.17 18.73L0.14 18.57L0.12 18.42L0.1 18.26L0.09 18.1L0.07 17.94L0.06 17.78L0.04 17.62L0.03 17.46L0.02 17.3L0.01 17.14L0.01 16.98L0 16.82L0 16.66L0 16.5L0 16.34ZM15.5 4.61L15.46 1.53L15.43 1.53L15.27 1.55L15.11 1.57L14.95 1.59L14.79 1.61L14.63 1.63L14.48 1.66L14.32 1.68L14.16 1.71L14.01 1.74L13.85 1.77L13.69 1.8L13.54 1.84L13.38 1.87L13.23 1.91L13.08 1.95L12.92 1.99L12.77 2.03L12.62 2.07L12.47 2.11L12.31 2.16L12.16 2.21L12.01 2.26L11.86 2.31L11.71 2.36L11.57 2.41L11.42 2.46L11.27 2.52L11.12 2.58L10.98 2.64L10.83 2.7L10.69 2.76L10.54 2.82L10.4 2.88L10.26 2.95L10.12 3.02L9.97 3.08L9.83 3.15L9.7 3.22L9.56 3.3L9.42 3.37L9.28 3.44L9.15 3.52L9.01 3.6L8.88 3.68L8.74 3.76L8.61 3.84L8.48 3.92L8.35 4L8.22 4.09L8.09 4.18L7.96 4.26L7.83 4.35L7.71 4.44L7.58 4.53L7.46 4.62L7.33 4.72L7.21 4.81L7.09 4.91L6.97 5.01L6.85 5.1L6.73 5.2L6.62 5.3L6.5 5.4L6.39 5.51L6.27 5.61L6.16 5.71L6.05 5.82L5.94 5.93L5.83 6.03L5.72 6.14L5.62 6.25L5.51 6.36L5.41 6.47L5.3 6.59L5.2 6.7L5.1 6.81L5 6.93L4.9 7.05L4.8 7.16L4.71 7.28L4.61 7.4L4.52 7.52L4.43 7.64L4.34 7.76L4.25 7.88L4.16 8.01L4.07 8.13L3.99 8.26L3.9 8.38L3.82 8.51L3.74 8.63L3.66 8.76L3.58 8.89L3.5 9.02L3.43 9.15L3.35 9.28L3.28 9.41L3.21 9.54L3.14 9.67L3.07 9.81L3 9.94L2.93 10.08L2.87 10.21L2.81 10.35L2.74 10.48L2.68 10.62L2.62 10.76L2.57 10.89L2.51 11.03L2.45 11.17L2.4 11.31L2.35 11.45L2.3 11.59L2.25 11.73L2.2 11.87L2.16 12.01L2.11 12.15L2.07 12.29L2.03 12.43L1.99 12.58L1.95 12.72L1.91 12.86L1.87 13.01L1.84 13.15L1.81 13.29L1.77 13.44L1.74 13.58L1.72 13.73L1.69 13.87L1.66 14.02L1.64 14.16L1.62 14.31L1.6 14.45L1.58 14.6L1.56 14.74L1.54 14.89L1.53 15.04L1.51 15.18L1.5 15.33L1.49 15.47L1.48 15.62L1.48 15.77L1.47 15.91L1.47 16.06L1.46 16.2L1.46 16.35L1.46 16.5L1.46 16.64L1.47 16.79L1.47 16.93L1.48 17.08L1.48 17.22L1.49 17.37L1.5 17.51L1.52 17.66L1.53 17.8L1.54 17.95L1.56 18.09L1.58 18.24L1.6 18.38L1.62 18.52L1.64 18.67L1.66 18.81L1.69 18.95L1.72 19.09L1.74 19.24L1.77 19.38L1.81 19.52L1.84 19.66L1.87 19.8L1.91 19.94L1.94 20.08L1.98 20.22L2.02 20.36L2.06 20.49L2.1 20.63L2.15 20.77L2.19 20.91L2.24 21.04L2.29 21.18L2.34 21.31L2.39 21.45L2.44 21.58L2.49 21.72L2.54 21.85L2.6 21.98L2.66 22.11L2.72 22.24L2.78 22.37L2.84 22.5L2.9 22.63L2.96 22.76L3.03 22.89L3.09 23.02L3.16 23.14L3.23 23.27L3.3 23.39L3.37 23.52L3.44 23.64L3.52 23.76L3.59 23.88L3.67 24L3.75 24.12L3.82 24.24L3.9 24.36L3.99 24.48L4.07 24.6L4.15 24.71L4.23 24.83L4.32 24.94L4.41 25.05L4.49 25.17L4.58 25.28L4.67 25.39L4.76 25.5L4.86 25.61L4.95 25.71L5.04 25.82L5.14 25.93L5.23 26.03L5.33 26.13L5.43 26.24L5.53 26.34L5.63 26.44L5.73 26.54L5.83 26.64L5.93 26.73L6.04 26.83L6.14 26.93L6.25 27.02L6.36 27.11L6.46 27.21L6.57 27.3L6.68 27.39L6.79 27.47L6.9 27.56L7.02 27.65L7.13 27.73L7.24 27.82L7.36 27.9L7.47 27.98L7.59 28.06L7.7 28.14L7.82 28.22L7.94 28.3L8.06 28.37L8.18 28.45L8.3 28.52L8.42 28.59L8.54 28.66L8.66 28.73L8.79 28.8L8.91 28.87L9.03 28.94L9.16 29L9.28 29.06L9.41 29.13L9.54 29.19L9.66 29.25L9.79 29.31L9.92 29.36L10.05 29.42L10.18 29.47L10.31 29.53L10.44 29.58L10.57 29.63L10.7 29.68L10.83 29.73L10.96 29.77L11.09 29.82L11.23 29.86L11.36 29.9L11.49 29.95L11.63 29.99L11.76 30.02L11.89 30.06L12.03 30.1L12.16 30.13L12.3 30.17L12.43 30.2L12.57 30.23L12.71 30.26L12.84 30.29L12.98 30.31L13.12 30.34L13.25 30.36L13.39 30.38L13.53 30.41L13.66 30.43L13.8 30.44L13.94 30.46L14.08 30.48L14.21 30.49L14.35 30.5L14.49 30.52L14.63 30.53L14.77 30.54L14.9 30.54L15.04 30.55L15.18 30.55L15.32 30.56L15.46 30.56L15.59 30.56L15.73 30.56L15.87 30.56L16.01 30.56L16.14 30.55L16.28 30.55L16.42 30.54L16.55 30.53L16.69 30.52L16.83 30.51L16.96 30.5L17.1 30.48L17.24 30.47L17.37 30.45L17.51 30.43L17.64 30.41L17.78 30.39L17.91 30.37L18.05 30.35L18.18 30.32L18.31 30.3L18.45 30.27L18.58 30.24L18.71 30.21L18.85 30.18L18.98 30.15L19.11 30.12L19.24 30.08L19.37 30.05L19.5 30.01L19.63 29.97L19.76 29.93L19.89 29.89L20.02 29.85L20.14 29.8L20.27 29.76L20.4 29.71L20.52 29.67L20.65 29.62L20.78 29.57L20.9 29.52L21.02 29.47L21.15 29.41L21.27 29.36L21.39 29.3L21.51 29.25L21.63 29.19L21.75 29.13L21.87 29.07L21.99 29.01L22.11 28.95L22.23 28.88L22.34 28.82L22.46 28.75L22.57 28.69L22.69 28.62L22.8 28.55L22.91 28.48L23.03 28.41L23.14 28.34L23.25 28.26L23.36 28.19L23.47 28.11L23.58 28.04L23.68 27.96L23.79 27.88L23.89 27.8L24 27.72L24.1 27.64L24.2 27.56L24.31 27.48L24.41 27.39L24.51 27.31L24.61 27.22L24.7 27.14L24.8 27.05L24.9 26.96L24.99 26.87L25.09 26.78L25.18 26.69L25.27 26.6L25.36 26.5L25.45 26.41L25.54 26.31L25.63 26.22L25.72 26.12L25.81 26.03L25.89 25.93L25.97 25.83L26.06 25.73L26.14 25.63L26.22 25.53L26.3 25.43L26.38 25.32L26.46 25.22L26.53 25.12L26.61 25.01L26.68 24.91L26.76 24.8L26.83 24.7L26.9 24.59L26.97 24.48L27.04 24.37L27.1 24.26L27.17 24.15L27.24 24.04L27.3 23.93L27.36 23.82L27.42 23.71L27.48 23.6L27.54 23.49L27.6 23.37L27.66 23.26L27.71 23.14L27.77 23.03L27.82 22.91L27.87 22.8L27.92 22.68L27.97 22.57L28.02 22.45L28.07 22.33L28.12 22.21L28.16 22.1L28.2 21.98L28.25 21.86L28.29 21.74L28.33 21.62L28.36 21.5L28.4 21.38L28.44 21.26L28.47 21.14L28.51 21.02L28.54 20.9L28.57 20.77L28.6 20.65L28.63 20.53L28.65 20.41L28.68 20.29L28.7 20.16L28.73 20.04L28.75 19.92L28.77 19.8L28.79 19.67L28.81 19.55L28.83 19.43L28.84 19.3L28.85 19.18L28.87 19.06L28.88 18.93L28.89 18.81L28.9 18.68L28.91 18.56L28.91 18.44L28.92 18.31L28.92 18.19L28.93 18.07L28.93 17.94L28.93 17.82L28.93 17.7L28.93 17.57L28.92 17.45L28.92 17.33L28.91 17.2L28.9 17.08L28.9 16.96L28.89 16.84L28.88 16.71L28.86 16.59L28.85 16.47L28.83 16.35L28.82 16.23L28.8 16.1L28.78 15.98L28.76 15.86L28.74 15.74L28.72 15.62L28.7 15.5L28.67 15.38L28.65 15.26L28.62 15.14L28.59 15.03L28.56 14.91L28.53 14.79L28.5 14.67L28.47 14.55L28.43 14.44L28.4 14.32L28.36 14.21L28.32 14.09L28.29 13.98L28.25 13.86L28.21 13.75L28.16 13.63L28.12 13.52L28.08 13.41L28.03 13.29L27.98 13.18L27.93 13.07L27.89 12.96L27.84 12.85L27.78 12.74L27.73 12.63L27.68 12.52L27.62 12.42L27.57 12.31L27.51 12.2L27.46 12.1L27.4 11.99L27.34 11.89L27.28 11.78L27.21 11.68L27.15 11.58L27.09 11.47L27.02 11.37L26.96 11.27L26.89 11.17L26.82 11.07L26.75 10.98L26.68 10.88L26.61 10.78L26.54 10.68L26.47 10.59L26.4 10.49L26.32 10.4L26.25 10.31L26.17 10.22L26.09 10.12L26.02 10.03L25.94 9.94L25.86 9.85L25.78 9.77L25.7 9.68L25.61 9.59L25.53 9.51L25.45 9.42L25.36 9.34L25.28 9.26L25.19 9.17L25.1 9.09L25.01 9.01L24.93 8.93L24.84 8.85L24.75 8.78L24.66 8.7L24.56 8.62L24.47 8.55L24.38 8.48L24.28 8.4L24.19 8.33L24.1 8.26L24 8.19L23.9 8.12L23.81 8.05L23.71 7.99L23.61 7.92L23.51 7.86L23.41 7.79L23.31 7.73L23.21 7.67L23.11 7.61L23.01 7.55L22.91 7.49L22.8 7.43L22.7 7.37L22.6 7.32L22.49 7.26L22.39 7.21L22.28 7.16L22.18 7.11L22.07 7.06L21.96 7.01L21.85 6.96L21.75 6.91L21.64 6.87L21.53 6.82L21.42 6.78L21.31 6.74L21.2 6.69L21.09 6.65L20.98 6.62L20.87 6.58L20.76 6.54L20.65 6.5L20.54 6.47L20.43 6.44L20.32 6.4L20.2 6.37L20.09 6.34L19.98 6.31L19.87 6.28L19.75 6.26L19.64 6.23L19.53 6.21L19.41 6.18L19.3 6.16L19.18 6.14L19.07 6.12L18.95 6.1L18.84 6.08L18.73 6.06L18.61 6.05L18.5 6.03L18.38 6.02L18.27 6.01L18.15 6L18.04 5.99L17.92 5.98L17.81 5.97L17.69 5.96L17.58 5.96L17.46 5.95L17.35 5.95L17.23 5.95L17.12 5.95L17 5.95L16.98 5.95L17.02 9.01L17.08 9.01L17.16 9.01L17.25 9.01L17.33 9.01L17.42 9.01L17.5 9.02L17.59 9.02L17.67 9.03L17.75 9.03L17.84 9.04L17.92 9.05L18.01 9.06L18.09 9.07L18.17 9.08L18.26 9.09L18.34 9.1L18.43 9.11L18.51 9.13L18.59 9.14L18.68 9.16L18.76 9.17L18.84 9.19L18.93 9.21L19.01 9.23L19.09 9.25L19.18 9.27L19.26 9.29L19.34 9.31L19.43 9.33L19.51 9.36L19.59 9.38L19.67 9.41L19.75 9.43L19.84 9.46L19.92 9.49L20 9.52L20.08 9.55L20.16 9.58L20.24 9.61L20.32 9.64L20.4 9.68L20.48 9.71L20.56 9.74L20.64 9.78L20.72 9.82L20.8 9.85L20.87 9.89L20.95 9.93L21.03 9.97L21.11 10.01L21.18 10.05L21.26 10.09L21.33 10.13L21.41 10.18L21.49 10.22L21.56 10.27L21.64 10.31L21.71 10.36L21.78 10.41L21.86 10.45L21.93 10.5L22 10.55L22.07 10.6L22.14 10.65L22.22 10.71L22.29 10.76L22.36 10.81L22.42 10.87L22.49 10.92L22.56 10.98L22.63 11.03L22.7 11.09L22.76 11.15L22.83 11.2L22.9 11.26L22.96 11.32L23.03 11.38L23.09 11.44L23.15 11.51L23.22 11.57L23.28 11.63L23.34 11.7L23.4 11.76L23.46 11.82L23.52 11.89L23.58 11.96L23.64 12.02L23.7 12.09L23.75 12.16L23.81 12.23L23.87 12.3L23.92 12.37L23.98 12.44L24.03 12.51L24.08 12.58L24.14 12.65L24.19 12.73L24.24 12.8L24.29 12.87L24.34 12.95L24.39 13.02L24.44 13.1L24.48 13.18L24.53 13.25L24.58 13.33L24.62 13.41L24.67 13.49L24.71 13.56L24.75 13.64L24.79 13.72L24.84 13.8L24.88 13.88L24.92 13.97L24.96 14.05L24.99 14.13L25.03 14.21L25.07 14.29L25.1 14.38L25.14 14.46L25.17 14.55L25.2 14.63L25.24 14.72L25.27 14.8L25.3 14.89L25.33 14.97L25.36 15.06L25.38 15.15L25.41 15.23L25.44 15.32L25.46 15.41L25.49 15.5L25.51 15.58L25.53 15.67L25.56 15.76L25.58 15.85L25.6 15.94L25.61 16.03L25.63 16.12L25.65 16.21L25.67 16.3L25.68 16.39L25.7 16.48L25.71 16.57L25.72 16.67L25.73 16.76L25.74 16.85L25.75 16.94L25.76 17.03L25.77 17.12L25.78 17.22L25.78 17.31L25.79 17.4L25.79 17.5L25.8 17.59L25.8 17.68L25.8 17.77L25.8 17.87L25.8 17.96L25.8 18.05L25.79 18.15L25.79 18.24L25.79 18.33L25.78 18.43L25.77 18.52L25.77 18.61L25.76 18.71L25.75 18.8L25.74 18.89L25.73 18.99L25.71 19.08L25.7 19.17L25.69 19.27L25.67 19.36L25.66 19.45L25.64 19.54L25.62 19.64L25.6 19.73L25.58 19.82L25.56 19.92L25.54 20.01L25.52 20.1L25.49 20.19L25.47 20.28L25.44 20.38L25.41 20.47L25.39 20.56L25.36 20.65L25.33 20.74L25.3 20.83L25.27 20.92L25.23 21.01L25.2 21.1L25.16 21.19L25.13 21.28L25.09 21.37L25.06 21.46L25.02 21.55L24.98 21.63L24.94 21.72L24.9 21.81L24.86 21.9L24.81 21.98L24.77 22.07L24.72 22.15L24.68 22.24L24.63 22.33L24.58 22.41L24.54 22.49L24.49 22.58L24.44 22.66L24.39 22.74L24.33 22.83L24.28 22.91L24.23 22.99L24.17 23.07L24.12 23.15L24.06 23.23L24 23.31L23.95 23.39L23.89 23.47L23.83 23.55L23.77 23.63L23.71 23.7L23.64 23.78L23.58 23.86L23.52 23.93L23.45 24.01L23.39 24.08L23.32 24.16L23.25 24.23L23.18 24.3L23.12 24.37L23.05 24.44L22.98 24.52L22.9 24.59L22.83 24.65L22.76 24.72L22.69 24.79L22.61 24.86L22.54 24.92L22.46 24.99L22.38 25.06L22.31 25.12L22.23 25.18L22.15 25.25L22.07 25.31L21.99 25.37L21.91 25.43L21.83 25.49L21.75 25.55L21.67 25.61L21.58 25.67L21.5 25.73L21.41 25.78L21.33 25.84L21.24 25.89L21.16 25.95L21.07 26L20.98 26.05L20.89 26.1L20.8 26.15L20.72 26.2L20.63 26.25L20.53 26.3L20.44 26.35L20.35 26.39L20.26 26.44L20.17 26.48L20.07 26.53L19.98 26.57L19.89 26.61L19.79 26.65L19.7 26.69L19.6 26.73L19.5 26.77L19.41 26.81L19.31 26.84L19.21 26.88L19.11 26.91L19.02 26.95L18.92 26.98L18.82 27.01L18.72 27.04L18.62 27.07L18.52 27.1L18.42 27.13L18.32 27.15L18.22 27.18L18.11 27.2L18.01 27.23L17.91 27.25L17.81 27.27L17.7 27.29L17.6 27.31L17.5 27.33L17.39 27.35L17.29 27.37L17.19 27.38L17.08 27.4L16.98 27.41L16.87 27.43L16.77 27.44L16.66 27.45L16.56 27.46L16.45 27.47L16.34 27.47L16.24 27.48L16.13 27.49L16.03 27.49L15.92 27.49L15.81 27.5L15.71 27.5L15.6 27.5L15.49 27.5L15.39 27.5L15.28 27.49L15.17 27.49L15.07 27.48L14.96 27.48L14.85 27.47L14.75 27.46L14.64 27.45L14.53 27.44L14.43 27.43L14.32 27.42L14.21 27.41L14.11 27.39L14 27.38L13.89 27.36L13.79 27.34L13.68 27.33L13.57 27.31L13.47 27.29L13.36 27.26L13.26 27.24L13.15 27.22L13.05 27.19L12.94 27.17L12.84 27.14L12.73 27.11L12.63 27.08L12.52 27.05L12.42 27.02L12.31 26.99L12.21 26.95L12.11 26.92L12.01 26.88L11.9 26.85L11.8 26.81L11.7 26.77L11.6 26.73L11.5 26.69L11.39 26.65L11.29 26.61L11.19 26.56L11.09 26.52L11 26.47L10.9 26.43L10.8 26.38L10.7 26.33L10.6 26.28L10.5 26.23L10.41 26.18L10.31 26.13L10.22 26.07L10.12 26.02L10.02 25.96L9.93 25.91L9.84 25.85L9.74 25.79L9.65 25.73L9.56 25.67L9.47 25.61L9.38 25.55L9.29 25.49L9.2 25.42L9.11 25.36L9.02 25.29L8.93 25.22L8.84 25.16L8.76 25.09L8.67 25.02L8.58 24.95L8.5 24.88L8.42 24.8L8.33 24.73L8.25 24.66L8.17 24.58L8.09 24.51L8.01 24.43L7.93 24.35L7.85 24.28L7.77 24.2L7.69 24.12L7.61 24.04L7.54 23.96L7.46 23.87L7.39 23.79L7.31 23.71L7.24 23.62L7.17 23.54L7.1 23.45L7.03 23.36L6.96 23.28L6.89 23.19L6.82 23.1L6.76 23.01L6.69 22.92L6.63 22.83L6.56 22.74L6.5 22.64L6.44 22.55L6.37 22.46L6.31 22.36L6.25 22.27L6.2 22.17L6.14 22.08L6.08 21.98L6.03 21.88L5.97 21.78L5.92 21.68L5.86 21.58L5.81 21.48L5.76 21.38L5.71 21.28L5.66 21.18L5.62 21.08L5.57 20.98L5.52 20.87L5.48 20.77L5.43 20.66L5.39 20.56L5.35 20.45L5.31 20.35L5.27 20.24L5.23 20.14L5.19 20.03L5.16 19.92L5.12 19.81L5.09 19.71L5.06 19.6L5.02 19.49L4.99 19.38L4.96 19.27L4.94 19.16L4.91 19.05L4.88 18.94L4.86 18.83L4.83 18.71L4.81 18.6L4.79 18.49L4.77 18.38L4.75 18.27L4.73 18.15L4.71 18.04L4.7 17.93L4.68 17.81L4.67 17.7L4.66 17.58L4.64 17.47L4.63 17.36L4.62 17.24L4.62 17.13L4.61 17.01L4.6 16.9L4.6 16.78L4.6 16.67L4.59 16.55L4.59 16.44L4.59 16.32L4.6 16.2L4.6 16.09L4.6 15.97L4.61 15.86L4.61 15.74L4.62 15.63L4.63 15.51L4.64 15.4L4.65 15.28L4.66 15.16L4.68 15.05L4.69 14.93L4.71 14.82L4.72 14.7L4.74 14.59L4.76 14.47L4.78 14.36L4.8 14.24L4.83 14.13L4.85 14.01L4.88 13.9L4.9 13.79L4.93 13.67L4.96 13.56L4.99 13.44L5.02 13.33L5.05 13.22L5.09 13.11L5.12 12.99L5.16 12.88L5.2 12.77L5.23 12.66L5.27 12.55L5.32 12.44L5.36 12.32L5.4 12.21L5.44 12.1L5.49 11.99L5.54 11.89L5.58 11.78L5.63 11.67L5.68 11.56L5.73 11.45L5.79 11.35L5.84 11.24L5.89 11.13L5.95 11.03L6.01 10.92L6.06 10.82L6.12 10.71L6.18 10.61L6.24 10.51L6.31 10.4L6.37 10.3L6.43 10.2L6.5 10.1L6.57 10L6.63 9.9L6.7 9.8L6.77 9.7L6.84 9.6L6.91 9.51L6.99 9.41L7.06 9.32L7.14 9.22L7.21 9.13L7.29 9.03L7.37 8.94L7.45 8.85L7.53 8.75L7.61 8.66L7.69 8.57L7.77 8.48L7.85 8.4L7.94 8.31L8.03 8.22L8.11 8.13L8.2 8.05L8.29 7.96L8.38 7.88L8.47 7.8L8.56 7.72L8.65 7.63L8.74 7.55L8.84 7.47L8.93 7.4L9.03 7.32L9.12 7.24L9.22 7.16L9.32 7.09L9.42 7.01L9.52 6.94L9.62 6.87L9.72 6.8L9.82 6.73L9.93 6.66L10.03 6.59L10.13 6.52L10.24 6.46L10.35 6.39L10.45 6.33L10.56 6.26L10.67 6.2L10.78 6.14L10.89 6.08L11 6.02L11.11 5.96L11.22 5.9L11.33 5.85L11.44 5.79L11.56 5.74L11.67 5.68L11.79 5.63L11.9 5.58L12.02 5.53L12.13 5.48L12.25 5.44L12.37 5.39L12.49 5.35L12.6 5.3L12.72 5.26L12.84 5.22L12.96 5.18L13.08 5.14L13.21 5.1L13.33 5.06L13.45 5.03L13.57 4.99L13.69 4.96L13.82 4.92L13.94 4.89L14.06 4.86L14.19 4.83L14.31 4.81L14.44 4.78L14.56 4.76L14.69 4.73L14.82 4.71L14.94 4.69L15.07 4.67L15.2 4.65L15.32 4.63L15.45 4.61L15.5 4.61ZM15.55 9.14L15.51 6.05L15.41 6.07L15.3 6.08L15.19 6.1L15.07 6.12L14.96 6.14L14.85 6.16L14.74 6.18L14.63 6.21L14.52 6.23L14.41 6.26L14.3 6.28L14.19 6.31L14.08 6.34L13.98 6.37L13.86 6.4L13.76 6.43L13.65 6.47L13.54 6.5L13.44 6.53L13.33 6.57L13.22 6.61L13.12 6.64L13.01 6.68L12.91 6.72L12.81 6.76L12.7 6.81L12.6 6.85L12.5 6.89L12.39 6.94L12.29 6.98L12.19 7.03L12.09 7.08L11.99 7.13L11.89 7.18L11.8 7.23L11.7 7.28L11.6 7.33L11.5 7.38L11.41 7.44L11.31 7.49L11.22 7.55L11.12 7.61L11.03 7.66L10.94 7.72L10.84 7.78L10.75 7.84L10.66 7.9L10.57 7.97L10.48 8.03L10.39 8.09L10.31 8.16L10.22 8.22L10.13 8.29L10.05 8.36L9.96 8.42L9.88 8.49L9.79 8.56L9.71 8.63L9.63 8.7L9.55 8.77L9.47 8.85L9.39 8.92L9.31 8.99L9.23 9.07L9.15 9.14L9.08 9.22L9 9.3L8.93 9.37L8.85 9.45L8.78 9.53L8.71 9.61L8.64 9.69L8.57 9.77L8.5 9.85L8.43 9.93L8.36 10.02L8.29 10.1L8.23 10.18L8.16 10.27L8.1 10.35L8.04 10.44L7.97 10.53L7.91 10.61L7.85 10.7L7.79 10.79L7.73 10.87L7.68 10.96L7.62 11.05L7.56 11.14L7.51 11.23L7.45 11.32L7.4 11.41L7.35 11.51L7.3 11.6L7.25 11.69L7.2 11.78L7.15 11.88L7.11 11.97L7.06 12.06L7.02 12.16L6.97 12.25L6.93 12.35L6.89 12.44L6.85 12.54L6.81 12.64L6.77 12.73L6.73 12.83L6.69 12.93L6.66 13.02L6.62 13.12L6.59 13.22L6.56 13.32L6.52 13.42L6.49 13.51L6.46 13.61L6.44 13.71L6.41 13.81L6.38 13.91L6.36 14.01L6.33 14.11L6.31 14.21L6.29 14.31L6.27 14.41L6.25 14.51L6.23 14.61L6.21 14.71L6.19 14.81L6.17 14.92L6.16 15.02L6.15 15.12L6.13 15.22L6.12 15.32L6.11 15.42L6.1 15.52L6.09 15.62L6.08 15.72L6.08 15.83L6.07 15.93L6.07 16.03L6.06 16.13L6.06 16.23L6.06 16.33L6.06 16.43L6.06 16.53L6.06 16.64L6.07 16.74L6.07 16.84L6.07 16.94L6.08 17.04L6.09 17.14L6.1 17.24L6.1 17.34L6.11 17.44L6.12 17.54L6.14 17.64L6.15 17.74L6.16 17.84L6.18 17.93L6.19 18.03L6.21 18.13L6.23 18.23L6.25 18.33L6.27 18.43L6.29 18.52L6.31 18.62L6.33 18.72L6.36 18.81L6.38 18.91L6.41 19.01L6.44 19.1L6.46 19.2L6.49 19.29L6.52 19.39L6.55 19.48L6.58 19.57L6.62 19.67L6.65 19.76L6.69 19.85L6.72 19.94L6.76 20.04L6.79 20.13L6.83 20.22L6.87 20.31L6.91 20.4L6.95 20.49L6.99 20.58L7.04 20.67L7.08 20.75L7.12 20.84L7.17 20.93L7.21 21.02L7.26 21.1L7.31 21.19L7.36 21.27L7.41 21.36L7.46 21.44L7.51 21.52L7.56 21.61L7.61 21.69L7.67 21.77L7.72 21.85L7.78 21.93L7.83 22.01L7.89 22.09L7.95 22.17L8 22.25L8.06 22.33L8.12 22.4L8.18 22.48L8.24 22.55L8.31 22.63L8.37 22.7L8.43 22.78L8.5 22.85L8.56 22.92L8.63 22.99L8.69 23.06L8.76 23.13L8.83 23.2L8.89 23.27L8.96 23.34L9.03 23.41L9.1 23.47L9.17 23.54L9.24 23.6L9.32 23.67L9.39 23.73L9.46 23.79L9.53 23.86L9.61 23.92L9.68 23.98L9.76 24.04L9.83 24.1L9.91 24.15L9.99 24.21L10.06 24.27L10.14 24.32L10.22 24.38L10.3 24.43L10.38 24.48L10.46 24.54L10.54 24.59L10.62 24.64L10.7 24.69L10.78 24.74L10.87 24.79L10.95 24.83L11.03 24.88L11.12 24.92L11.2 24.97L11.28 25.01L11.37 25.06L11.45 25.1L11.54 25.14L11.62 25.18L11.71 25.22L11.8 25.26L11.88 25.3L11.97 25.33L12.06 25.37L12.15 25.4L12.23 25.44L12.32 25.47L12.41 25.5L12.5 25.53L12.59 25.56L12.68 25.59L12.77 25.62L12.86 25.65L12.95 25.68L13.04 25.7L13.13 25.73L13.22 25.75L13.31 25.78L13.4 25.8L13.49 25.82L13.58 25.84L13.67 25.86L13.76 25.88L13.85 25.9L13.95 25.92L14.04 25.93L14.13 25.95L14.22 25.96L14.31 25.97L14.41 25.99L14.5 26L14.59 26.01L14.68 26.02L14.77 26.03L14.87 26.03L14.96 26.04L15.05 26.05L15.14 26.05L15.23 26.06L15.33 26.06L15.42 26.06L15.51 26.06L15.6 26.06L15.69 26.06L15.79 26.06L15.88 26.06L15.97 26.06L16.06 26.05L16.15 26.05L16.24 26.04L16.33 26.04L16.43 26.03L16.52 26.02L16.61 26.01L16.7 26L16.79 25.99L16.88 25.98L16.97 25.97L17.06 25.95L17.15 25.94L17.24 25.92L17.32 25.91L17.41 25.89L17.5 25.87L17.59 25.85L17.68 25.83L17.77 25.81L17.85 25.79L17.94 25.77L18.03 25.75L18.11 25.72L18.2 25.7L18.29 25.67L18.37 25.64L18.46 25.62L18.54 25.59L18.62 25.56L18.71 25.53L18.79 25.5L18.88 25.47L18.96 25.44L19.04 25.4L19.12 25.37L19.2 25.34L19.29 25.3L19.37 25.27L19.45 25.23L19.53 25.19L19.61 25.15L19.69 25.11L19.76 25.07L19.84 25.03L19.92 24.99L20 24.95L20.07 24.91L20.15 24.87L20.23 24.82L20.3 24.78L20.38 24.73L20.45 24.69L20.52 24.64L20.6 24.59L20.67 24.54L20.74 24.49L20.81 24.45L20.88 24.39L20.95 24.34L21.02 24.29L21.09 24.24L21.16 24.19L21.23 24.13L21.29 24.08L21.36 24.03L21.43 23.97L21.49 23.92L21.56 23.86L21.62 23.8L21.68 23.74L21.75 23.69L21.81 23.63L21.87 23.57L21.93 23.51L21.99 23.45L22.05 23.39L22.11 23.33L22.17 23.26L22.22 23.2L22.28 23.14L22.34 23.08L22.39 23.01L22.45 22.95L22.5 22.88L22.55 22.82L22.61 22.75L22.66 22.69L22.71 22.62L22.76 22.55L22.81 22.48L22.86 22.42L22.9 22.35L22.95 22.28L23 22.21L23.04 22.14L23.09 22.07L23.13 22L23.18 21.93L23.22 21.86L23.26 21.79L23.3 21.72L23.34 21.64L23.38 21.57L23.42 21.5L23.46 21.42L23.5 21.35L23.53 21.28L23.57 21.2L23.6 21.13L23.64 21.05L23.67 20.98L23.7 20.9L23.73 20.83L23.77 20.75L23.8 20.68L23.82 20.6L23.85 20.53L23.88 20.45L23.91 20.37L23.93 20.3L23.96 20.22L23.98 20.14L24.01 20.06L24.03 19.99L24.05 19.91L24.07 19.83L24.09 19.75L24.11 19.68L24.13 19.6L24.15 19.52L24.17 19.44L24.18 19.36L24.2 19.28L24.21 19.2L24.23 19.13L24.24 19.05L24.25 18.97L24.26 18.89L24.27 18.81L24.28 18.73L24.29 18.65L24.3 18.57L24.31 18.49L24.31 18.42L24.32 18.34L24.32 18.26L24.33 18.18L24.33 18.1L24.33 18.02L24.33 17.94L24.33 17.86L24.33 17.78L24.33 17.71L24.33 17.63L24.33 17.55L24.32 17.47L24.32 17.39L24.31 17.31L24.31 17.24L24.3 17.16L24.29 17.08L24.29 17L24.28 16.93L24.27 16.85L24.26 16.77L24.25 16.7L24.23 16.62L24.22 16.54L24.21 16.47L24.19 16.39L24.18 16.31L24.16 16.24L24.14 16.16L24.13 16.09L24.11 16.01L24.09 15.94L24.07 15.86L24.05 15.79L24.03 15.72L24.01 15.64L23.98 15.57L23.96 15.5L23.94 15.42L23.91 15.35L23.89 15.28L23.86 15.21L23.83 15.14L23.8 15.06L23.78 14.99L23.75 14.92L23.72 14.85L23.69 14.78L23.65 14.71L23.62 14.65L23.59 14.58L23.56 14.51L23.52 14.44L23.49 14.37L23.45 14.31L23.42 14.24L23.38 14.17L23.34 14.11L23.31 14.04L23.27 13.98L23.23 13.91L23.19 13.85L23.15 13.79L23.11 13.72L23.07 13.66L23.02 13.6L22.98 13.54L22.94 13.48L22.89 13.42L22.85 13.36L22.8 13.3L22.76 13.24L22.71 13.18L22.66 13.12L22.62 13.06L22.57 13.01L22.52 12.95L22.47 12.89L22.42 12.84L22.37 12.78L22.32 12.73L22.27 12.68L22.22 12.62L22.17 12.57L22.11 12.52L22.06 12.47L22.01 12.42L21.95 12.37L21.9 12.32L21.85 12.27L21.79 12.22L21.73 12.17L21.68 12.12L21.62 12.08L21.56 12.03L21.51 11.98L21.45 11.94L21.39 11.89L21.33 11.85L21.27 11.81L21.21 11.76L21.15 11.72L21.09 11.68L21.03 11.64L20.97 11.6L20.91 11.56L20.85 11.52L20.79 11.49L20.73 11.45L20.66 11.41L20.6 11.37L20.54 11.34L20.47 11.3L20.41 11.27L20.35 11.24L20.28 11.2L20.22 11.17L20.15 11.14L20.09 11.11L20.02 11.08L19.95 11.05L19.89 11.02L19.82 10.99L19.76 10.97L19.69 10.94L19.62 10.91L19.56 10.89L19.49 10.86L19.42 10.84L19.36 10.82L19.29 10.79L19.22 10.77L19.15 10.75L19.08 10.73L19.02 10.71L18.95 10.69L18.88 10.67L18.81 10.66L18.74 10.64L18.67 10.62L18.6 10.61L18.54 10.59L18.47 10.58L18.4 10.56L18.33 10.55L18.26 10.54L18.19 10.53L18.12 10.52L18.05 10.51L17.98 10.5L17.91 10.49L17.84 10.48L17.77 10.47L17.7 10.47L17.63 10.46L17.56 10.46L17.5 10.45L17.43 10.45L17.36 10.45L17.29 10.44L17.22 10.44L17.15 10.44L17.08 10.44L17.03 10.44L17.07 13.46L17.09 13.46L17.13 13.46L17.17 13.46L17.21 13.46L17.25 13.46L17.29 13.47L17.33 13.47L17.37 13.47L17.41 13.48L17.45 13.48L17.49 13.48L17.53 13.49L17.57 13.49L17.61 13.5L17.65 13.5L17.69 13.51L17.73 13.52L17.77 13.53L17.81 13.53L17.85 13.54L17.89 13.55L17.93 13.56L17.97 13.57L18.01 13.58L18.05 13.59L18.09 13.6L18.13 13.61L18.17 13.62L18.21 13.63L18.25 13.65L18.29 13.66L18.33 13.67L18.37 13.68L18.41 13.7L18.45 13.71L18.49 13.73L18.53 13.74L18.56 13.76L18.6 13.78L18.64 13.79L18.68 13.81L18.72 13.83L18.76 13.84L18.8 13.86L18.83 13.88L18.87 13.9L18.91 13.92L18.95 13.94L18.99 13.96L19.02 13.98L19.06 14L19.1 14.02L19.13 14.05L19.17 14.07L19.21 14.09L19.24 14.11L19.28 14.14L19.32 14.16L19.35 14.19L19.39 14.21L19.42 14.24L19.46 14.26L19.49 14.29L19.53 14.31L19.56 14.34L19.6 14.37L19.63 14.4L19.66 14.42L19.7 14.45L19.73 14.48L19.76 14.51L19.8 14.54L19.83 14.57L19.86 14.6L19.89 14.63L19.93 14.66L19.96 14.69L19.99 14.73L20.02 14.76L20.05 14.79L20.08 14.82L20.11 14.86L20.14 14.89L20.17 14.92L20.2 14.96L20.23 14.99L20.25 15.03L20.28 15.06L20.31 15.1L20.34 15.14L20.36 15.17L20.39 15.21L20.42 15.25L20.44 15.28L20.47 15.32L20.49 15.36L20.52 15.4L20.54 15.44L20.57 15.47L20.59 15.51L20.61 15.55L20.64 15.59L20.66 15.63L20.68 15.67L20.7 15.71L20.73 15.76L20.75 15.8L20.77 15.84L20.79 15.88L20.81 15.92L20.83 15.96L20.85 16.01L20.86 16.05L20.88 16.09L20.9 16.14L20.92 16.18L20.93 16.22L20.95 16.27L20.97 16.31L20.98 16.36L21 16.4L21.01 16.45L21.03 16.49L21.04 16.54L21.05 16.58L21.06 16.63L21.08 16.67L21.09 16.72L21.1 16.77L21.11 16.81L21.12 16.86L21.13 16.91L21.14 16.95L21.15 17L21.16 17.05L21.17 17.09L21.17 17.14L21.18 17.19L21.19 17.24L21.19 17.29L21.2 17.33L21.2 17.38L21.21 17.43L21.21 17.48L21.22 17.53L21.22 17.58L21.22 17.62L21.22 17.67L21.23 17.72L21.23 17.77L21.23 17.82L21.23 17.87L21.23 17.92L21.22 17.97L21.22 18.02L21.22 18.07L21.22 18.12L21.21 18.17L21.21 18.22L21.21 18.27L21.2 18.31L21.2 18.36L21.19 18.41L21.18 18.46L21.18 18.51L21.17 18.56L21.16 18.61L21.15 18.66L21.14 18.71L21.13 18.76L21.12 18.81L21.11 18.86L21.1 18.91L21.09 18.96L21.08 19.01L21.07 19.06L21.05 19.11L21.04 19.16L21.02 19.21L21.01 19.25L20.99 19.3L20.98 19.35L20.96 19.4L20.94 19.45L20.93 19.5L20.91 19.55L20.89 19.59L20.87 19.64L20.85 19.69L20.83 19.74L20.81 19.79L20.79 19.83L20.77 19.88L20.74 19.93L20.72 19.98L20.7 20.02L20.67 20.07L20.65 20.12L20.62 20.16L20.6 20.21L20.57 20.26L20.55 20.3L20.52 20.35L20.49 20.39L20.46 20.44L20.43 20.48L20.41 20.53L20.38 20.57L20.35 20.62L20.32 20.66L20.28 20.7L20.25 20.75L20.22 20.79L20.19 20.83L20.15 20.88L20.12 20.92L20.09 20.96L20.05 21L20.02 21.04L19.98 21.09L19.95 21.13L19.91 21.17L19.87 21.21L19.83 21.25L19.8 21.29L19.76 21.33L19.72 21.37L19.68 21.4L19.64 21.44L19.6 21.48L19.56 21.52L19.52 21.56L19.48 21.59L19.44 21.63L19.39 21.67L19.35 21.7L19.31 21.74L19.26 21.77L19.22 21.81L19.17 21.84L19.13 21.87L19.08 21.91L19.04 21.94L18.99 21.97L18.95 22.01L18.9 22.04L18.85 22.07L18.8 22.1L18.76 22.13L18.71 22.16L18.66 22.19L18.61 22.22L18.56 22.25L18.51 22.28L18.46 22.3L18.41 22.33L18.36 22.36L18.31 22.38L18.26 22.41L18.2 22.43L18.15 22.46L18.1 22.48L18.05 22.51L17.99 22.53L17.94 22.55L17.89 22.58L17.83 22.6L17.78 22.62L17.72 22.64L17.67 22.66L17.61 22.68L17.56 22.7L17.5 22.72L17.44 22.74L17.39 22.75L17.33 22.77L17.27 22.79L17.22 22.8L17.16 22.82L17.1 22.83L17.04 22.85L16.99 22.86L16.93 22.87L16.87 22.89L16.81 22.9L16.75 22.91L16.69 22.92L16.63 22.93L16.58 22.94L16.52 22.95L16.46 22.96L16.4 22.97L16.34 22.97L16.28 22.98L16.22 22.99L16.16 22.99L16.1 23L16.03 23L15.97 23.01L15.91 23.01L15.85 23.01L15.79 23.01L15.73 23.02L15.67 23.02L15.61 23.02L15.55 23.02L15.48 23.01L15.42 23.01L15.36 23.01L15.3 23.01L15.24 23L15.18 23L15.11 23L15.05 22.99L14.99 22.98L14.93 22.98L14.87 22.97L14.81 22.96L14.74 22.95L14.68 22.95L14.62 22.94L14.56 22.93L14.5 22.91L14.44 22.9L14.37 22.89L14.31 22.88L14.25 22.86L14.19 22.85L14.13 22.84L14.07 22.82L14.01 22.8L13.95 22.79L13.89 22.77L13.83 22.75L13.76 22.73L13.7 22.71L13.64 22.7L13.58 22.67L13.52 22.65L13.46 22.63L13.4 22.61L13.34 22.59L13.28 22.56L13.23 22.54L13.17 22.51L13.11 22.49L13.05 22.46L12.99 22.44L12.93 22.41L12.87 22.38L12.82 22.35L12.76 22.33L12.7 22.3L12.64 22.27L12.59 22.23L12.53 22.2L12.48 22.17L12.42 22.14L12.36 22.11L12.31 22.07L12.25 22.04L12.2 22L12.14 21.97L12.09 21.93L12.04 21.89L11.98 21.86L11.93 21.82L11.88 21.78L11.82 21.74L11.77 21.7L11.72 21.66L11.67 21.62L11.62 21.58L11.57 21.54L11.52 21.5L11.46 21.45L11.42 21.41L11.37 21.37L11.32 21.32L11.27 21.28L11.22 21.23L11.17 21.19L11.13 21.14L11.08 21.09L11.03 21.05L10.99 21L10.94 20.95L10.9 20.9L10.85 20.85L10.81 20.8L10.77 20.75L10.72 20.7L10.68 20.65L10.64 20.6L10.6 20.54L10.56 20.49L10.51 20.44L10.47 20.38L10.44 20.33L10.4 20.27L10.36 20.22L10.32 20.16L10.28 20.11L10.25 20.05L10.21 19.99L10.17 19.94L10.14 19.88L10.1 19.82L10.07 19.76L10.04 19.7L10 19.64L9.97 19.58L9.94 19.52L9.91 19.46L9.88 19.4L9.85 19.34L9.82 19.28L9.79 19.22L9.76 19.16L9.73 19.09L9.71 19.03L9.68 18.97L9.66 18.9L9.63 18.84L9.61 18.78L9.58 18.71L9.56 18.65L9.54 18.58L9.52 18.52L9.49 18.45L9.47 18.38L9.45 18.32L9.44 18.25L9.42 18.18L9.4 18.12L9.38 18.05L9.37 17.98L9.35 17.92L9.34 17.85L9.32 17.78L9.31 17.71L9.29 17.64L9.28 17.57L9.27 17.51L9.26 17.44L9.25 17.37L9.24 17.3L9.23 17.23L9.22 17.16L9.22 17.09L9.21 17.02L9.2 16.95L9.2 16.88L9.19 16.81L9.19 16.74L9.19 16.67L9.19 16.6L9.18 16.53L9.18 16.45L9.18 16.38L9.18 16.31L9.19 16.24L9.19 16.17L9.19 16.1L9.19 16.03L9.2 15.96L9.2 15.89L9.21 15.81L9.22 15.74L9.22 15.67L9.23 15.6L9.24 15.53L9.25 15.46L9.26 15.39L9.27 15.32L9.28 15.24L9.3 15.17L9.31 15.1L9.32 15.03L9.34 14.96L9.35 14.89L9.37 14.82L9.39 14.75L9.41 14.68L9.42 14.61L9.44 14.54L9.46 14.47L9.48 14.4L9.51 14.33L9.53 14.26L9.55 14.19L9.58 14.12L9.6 14.05L9.62 13.98L9.65 13.91L9.68 13.84L9.71 13.77L9.73 13.71L9.76 13.64L9.79 13.57L9.82 13.5L9.85 13.43L9.89 13.37L9.92 13.3L9.95 13.23L9.99 13.17L10.02 13.1L10.06 13.04L10.09 12.97L10.13 12.91L10.17 12.84L10.21 12.78L10.24 12.71L10.28 12.65L10.32 12.58L10.37 12.52L10.41 12.46L10.45 12.4L10.49 12.33L10.54 12.27L10.58 12.21L10.63 12.15L10.67 12.09L10.72 12.03L10.77 11.97L10.81 11.91L10.86 11.85L10.91 11.79L10.96 11.73L11.01 11.68L11.06 11.62L11.11 11.56L11.17 11.51L11.22 11.45L11.27 11.39L11.33 11.34L11.38 11.29L11.44 11.23L11.49 11.18L11.55 11.13L11.61 11.07L11.67 11.02L11.73 10.97L11.78 10.92L11.84 10.87L11.9 10.82L11.96 10.77L12.03 10.72L12.09 10.67L12.15 10.63L12.21 10.58L12.28 10.53L12.34 10.49L12.41 10.44L12.47 10.4L12.54 10.35L12.6 10.31L12.67 10.27L12.74 10.23L12.8 10.18L12.87 10.14L12.94 10.1L13.01 10.06L13.08 10.02L13.15 9.99L13.22 9.95L13.29 9.91L13.36 9.88L13.43 9.84L13.51 9.81L13.58 9.77L13.65 9.74L13.73 9.7L13.8 9.67L13.87 9.64L13.95 9.61L14.02 9.58L14.1 9.55L14.17 9.52L14.25 9.49L14.33 9.47L14.4 9.44L14.48 9.42L14.56 9.39L14.64 9.37L14.71 9.34L14.79 9.32L14.87 9.3L14.95 9.28L15.03 9.26L15.11 9.24L15.19 9.22L15.27 9.2L15.35 9.18L15.43 9.17L15.51 9.15L15.55 9.14ZM16.54 14.95L15.62 15.17L15.57 10.6L15.53 10.61L15.46 10.63L15.39 10.65L15.33 10.66L15.26 10.68L15.2 10.7L15.14 10.72L15.07 10.74L15.01 10.76L14.95 10.78L14.88 10.8L14.82 10.82L14.76 10.84L14.69 10.86L14.63 10.89L14.57 10.91L14.51 10.93L14.45 10.96L14.39 10.99L14.33 11.01L14.27 11.04L14.21 11.07L14.15 11.09L14.09 11.12L14.03 11.15L13.97 11.18L13.91 11.21L13.86 11.24L13.8 11.27L13.74 11.3L13.69 11.34L13.63 11.37L13.58 11.4L13.52 11.44L13.47 11.47L13.41 11.51L13.36 11.54L13.3 11.58L13.25 11.61L13.2 11.65L13.15 11.69L13.1 11.72L13.04 11.76L12.99 11.8L12.94 11.84L12.89 11.88L12.84 11.92L12.8 11.96L12.75 12L12.7 12.04L12.65 12.08L12.6 12.13L12.56 12.17L12.51 12.21L12.47 12.25L12.42 12.3L12.38 12.34L12.33 12.39L12.29 12.43L12.25 12.48L12.2 12.52L12.16 12.57L12.12 12.61L12.08 12.66L12.04 12.71L12 12.76L11.96 12.8L11.92 12.85L11.88 12.9L11.85 12.95L11.81 13L11.77 13.05L11.74 13.1L11.7 13.15L11.67 13.2L11.63 13.25L11.6 13.3L11.57 13.35L11.53 13.4L11.5 13.45L11.47 13.5L11.44 13.55L11.41 13.61L11.38 13.66L11.35 13.71L11.32 13.76L11.29 13.82L11.27 13.87L11.24 13.92L11.21 13.98L11.19 14.03L11.16 14.09L11.14 14.14L11.11 14.2L11.09 14.25L11.07 14.3L11.05 14.36L11.02 14.41L11 14.47L10.98 14.53L10.96 14.58L10.94 14.64L10.93 14.69L10.91 14.75L10.89 14.8L10.87 14.86L10.86 14.92L10.84 14.97L10.83 15.03L10.81 15.09L10.8 15.14L10.79 15.2L10.77 15.26L10.76 15.31L10.75 15.37L10.74 15.43L10.73 15.48L10.72 15.54L10.71 15.6L10.7 15.65L10.7 15.71L10.69 15.77L10.68 15.82L10.68 15.88L10.67 15.94L10.67 15.99L10.66 16.05L10.66 16.11L10.66 16.16L10.65 16.22L10.65 16.28L10.65 16.33L10.65 16.39L10.65 16.45L10.65 16.5L10.65 16.56L10.65 16.62L10.66 16.67L10.66 16.73L10.66 16.78L10.67 16.84L10.67 16.89L10.68 16.95L10.68 17.01L10.69 17.06L10.69 17.12L10.7 17.17L10.71 17.23L10.72 17.28L10.73 17.34L10.74 17.39L10.75 17.44L10.76 17.5L10.77 17.55L10.78 17.61L10.79 17.66L10.81 17.71L10.82 17.77L10.83 17.82L10.85 17.87L10.86 17.92L10.88 17.98L10.9 18.03L10.91 18.08L10.93 18.13L10.95 18.18L10.97 18.23L10.98 18.28L11 18.33L11.02 18.39L11.04 18.44L11.06 18.48L11.08 18.53L11.11 18.58L11.13 18.63L11.15 18.68L11.17 18.73L11.2 18.78L11.22 18.83L11.25 18.87L11.27 18.92L11.3 18.97L11.32 19.01L11.35 19.06L11.37 19.11L11.4 19.15L11.43 19.2L11.46 19.24L11.49 19.29L11.51 19.33L11.54 19.37L11.57 19.42L11.6 19.46L11.63 19.5L11.66 19.55L11.7 19.59L11.73 19.63L11.76 19.67L11.79 19.71L11.83 19.75L11.86 19.79L11.89 19.83L11.93 19.87L11.96 19.91L11.99 19.95L12.03 19.99L12.06 20.02L12.1 20.06L12.14 20.1L12.17 20.14L12.21 20.17L12.25 20.21L12.28 20.24L12.32 20.28L12.36 20.31L12.4 20.35L12.44 20.38L12.48 20.41L12.51 20.45L12.55 20.48L12.59 20.51L12.63 20.54L12.67 20.57L12.71 20.6L12.75 20.63L12.8 20.66L12.84 20.69L12.88 20.72L12.92 20.75L12.96 20.78L13 20.8L13.05 20.83L13.09 20.86L13.13 20.88L13.17 20.91L13.22 20.93L13.26 20.96L13.3 20.98L13.35 21.01L13.39 21.03L13.44 21.05L13.48 21.08L13.52 21.1L13.57 21.12L13.61 21.14L13.66 21.16L13.7 21.18L13.75 21.2L13.79 21.22L13.84 21.24L13.89 21.25L13.93 21.27L13.98 21.29L14.02 21.31L14.07 21.32L14.12 21.34L14.16 21.35L14.21 21.37L14.25 21.38L14.3 21.39L14.35 21.41L14.39 21.42L14.44 21.43L14.49 21.44L14.53 21.46L14.58 21.47L14.63 21.48L14.67 21.49L14.72 21.5L14.77 21.5L14.81 21.51L14.86 21.52L14.91 21.53L14.96 21.54L15 21.54L15.05 21.55L15.1 21.55L15.14 21.56L15.19 21.56L15.24 21.57L15.28 21.57L15.33 21.57L15.38 21.58L15.42 21.58L15.47 21.58L15.52 21.58L15.56 21.58L15.61 21.58L15.66 21.58L15.7 21.58L15.75 21.58L15.8 21.58L15.84 21.58L15.89 21.57L15.93 21.57L15.98 21.57L16.02 21.56L16.07 21.56L16.12 21.56L16.16 21.55L16.21 21.55L16.25 21.54L16.3 21.53L16.34 21.53L16.38 21.52L16.43 21.51L16.47 21.5L16.52 21.49L16.56 21.48L16.61 21.48L16.65 21.47L16.69 21.46L16.74 21.44L16.78 21.43L16.82 21.42L16.86 21.41L16.91 21.4L16.95 21.38L16.99 21.37L17.03 21.36L17.07 21.34L17.12 21.33L17.16 21.32L17.2 21.3L17.24 21.28L17.28 21.27L17.32 21.25L17.36 21.24L17.4 21.22L17.44 21.2L17.48 21.18L17.52 21.17L17.56 21.15L17.6 21.13L17.63 21.11L17.67 21.09L17.71 21.07L17.75 21.05L17.78 21.03L17.82 21.01L17.86 20.99L17.89 20.97L17.93 20.94L17.97 20.92L18 20.9L18.04 20.88L18.07 20.85L18.11 20.83L18.14 20.81L18.17 20.78L18.21 20.76L18.24 20.73L18.27 20.71L18.31 20.68L18.34 20.66L18.37 20.63L18.4 20.61L18.43 20.58L18.47 20.55L18.5 20.53L18.53 20.5L18.56 20.47L18.59 20.45L18.62 20.42L18.65 20.39L18.67 20.36L18.7 20.33L18.73 20.3L18.76 20.27L18.79 20.25L18.81 20.22L18.84 20.19L18.87 20.16L18.89 20.13L18.92 20.1L18.94 20.07L18.97 20.04L18.99 20L19.02 19.97L19.04 19.94L19.06 19.91L19.08 19.88L19.11 19.85L19.13 19.82L19.15 19.78L19.17 19.75L19.19 19.72L19.21 19.69L19.23 19.65L19.25 19.62L19.27 19.59L19.29 19.55L19.31 19.52L19.33 19.49L19.35 19.45L19.37 19.42L19.38 19.39L19.4 19.35L19.42 19.32L19.43 19.29L19.45 19.25L19.46 19.22L19.48 19.18L19.49 19.15L19.51 19.12L19.52 19.08L19.53 19.05L19.55 19.01L19.56 18.98L19.57 18.94L19.58 18.91L19.6 18.87L19.61 18.84L19.62 18.8L19.63 18.77L19.64 18.73L19.65 18.7L19.66 18.66L19.66 18.63L19.67 18.59L19.68 18.56L19.69 18.52L19.7 18.49L19.7 18.45L19.71 18.42L19.71 18.38L19.72 18.35L19.73 18.31L19.73 18.28L19.73 18.24L19.74 18.21L19.74 18.17L19.75 18.14L19.75 18.1L19.75 18.07L19.75 18.03L19.76 18L19.76 17.96L19.76 17.93L19.76 17.89L19.76 17.86L19.76 17.83L19.76 17.79L19.76 17.76L19.76 17.72L19.76 17.69L19.75 17.65L19.75 17.62L19.75 17.59L19.75 17.55L19.74 17.52L19.74 17.49L19.74 17.45L19.73 17.42L19.73 17.39L19.72 17.35L19.72 17.32L19.71 17.29L19.71 17.25L19.7 17.22L19.69 17.19L19.69 17.16L19.68 17.12L19.67 17.09L19.66 17.06L19.66 17.03L19.65 17L19.64 16.97L19.63 16.93L19.62 16.9L19.61 16.87L19.6 16.84L19.59 16.81L19.58 16.78L19.57 16.75L19.56 16.72L19.55 16.69L19.54 16.66L19.52 16.63L19.51 16.6L19.5 16.57L19.49 16.54L19.47 16.51L19.46 16.49L19.45 16.46L19.43 16.43L19.42 16.4L19.4 16.37L19.39 16.35L19.37 16.32L19.36 16.29L19.34 16.27L19.33 16.24L19.31 16.21L19.29 16.19L19.28 16.16L19.26 16.13L19.24 16.11L19.23 16.08L19.21 16.06L19.19 16.03L19.17 16.01L19.16 15.98L19.14 15.96L19.12 15.94L19.1 15.91L19.08 15.89L19.06 15.87L19.04 15.84L19.02 15.82L19 15.8L18.98 15.78L18.96 15.75L18.94 15.73L18.92 15.71L18.9 15.69L18.88 15.67L18.86 15.65L18.84 15.63L18.82 15.61L18.8 15.59L18.78 15.57L18.75 15.55L18.73 15.53L18.71 15.51L18.69 15.49L18.66 15.48L18.64 15.46L18.62 15.44L18.6 15.42L18.57 15.41L18.55 15.39L18.53 15.37L18.51 15.36L18.48 15.34L18.46 15.33L18.44 15.31L18.41 15.3L18.39 15.28L18.36 15.27L18.34 15.25L18.32 15.24L18.29 15.22L18.27 15.21L18.24 15.2L18.22 15.18L18.2 15.17L18.17 15.16L18.15 15.15L18.12 15.14L18.1 15.12L18.07 15.11L18.05 15.1L18.02 15.09L18 15.08L17.97 15.07L17.95 15.06L17.92 15.05L17.9 15.04L17.87 15.03L17.85 15.03L17.82 15.02L17.8 15.01L17.77 15L17.75 14.99L17.72 14.99L17.7 14.98L17.67 14.97L17.65 14.97L17.62 14.96L17.6 14.96L17.57 14.95L17.55 14.94L17.52 14.94L17.5 14.93L17.47 14.93L17.45 14.93L17.42 14.92L17.4 14.92L17.37 14.91L17.35 14.91L17.32 14.91L17.3 14.91L17.27 14.9L17.25 14.9L17.22 14.9L17.2 14.9L17.18 14.9L17.15 14.9L17.13 14.89L17.1 14.89L17.08 14.89L17.05 14.89L17.03 14.89L17.01 14.89L16.98 14.89L16.96 14.9L16.93 14.9L16.91 14.9L16.89 14.9L16.86 14.9L16.84 14.9L16.82 14.91L16.79 14.91L16.77 14.91L16.75 14.91L16.72 14.92L16.7 14.92L16.68 14.93L16.66 14.93L16.63 14.93L16.61 14.94L16.59 14.94L16.57 14.95L16.54 14.95Z" fill="#FFFFFF" fill-opacity="1.000000" fill-rule="evenodd"/>
	<path id="SHELLS" d="M48.47 18.42Q48.77 18.87 48.77 19.52Q48.77 20.03 48.54 20.42Q48.37 20.72 48.06 20.94Q47.36 21.45 46.11 21.45Q44.12 21.45 43.3 20.48Q42.73 19.79 42.73 18.63L39.2 18.63Q39.2 19.86 39.68 20.88Q39.84 21.22 40.05 21.53Q40.07 21.56 40.09 21.58Q40.93 22.8 42.52 23.51Q44.14 24.23 46.11 24.23Q48.94 24.23 50.62 22.97Q51.34 22.43 51.75 21.7Q52.29 20.75 52.29 19.5Q52.29 18.37 51.85 17.45Q51.52 16.75 50.92 16.17Q49.55 14.83 46.55 13.93Q44.92 13.44 44.08 12.87Q43.49 12.47 43.32 11.94Q43.25 11.72 43.25 11.48Q43.25 11.04 43.42 10.69Q43.6 10.32 43.96 10.04Q44.68 9.5 45.97 9.5Q47.3 9.5 48.04 10.15Q48.23 10.31 48.36 10.51Q48.78 11.1 48.78 11.97L52.29 11.97Q52.29 10.92 51.92 10.02Q51.75 9.61 51.5 9.23Q51.33 8.97 51.13 8.73Q50.4 7.88 49.28 7.36Q47.85 6.7 46.02 6.7Q44.21 6.7 42.75 7.31Q41.29 7.92 40.51 9Q40.19 9.44 40.01 9.93Q39.73 10.65 39.73 11.47Q39.73 12.27 39.99 12.97Q40.61 14.6 42.64 15.7Q43.7 16.27 45.53 16.86Q47.36 17.46 48.06 17.99Q48.31 18.18 48.47 18.42ZM119.67 18.42Q119.97 18.87 119.97 19.52Q119.97 20.03 119.75 20.42Q119.57 20.72 119.27 20.94Q118.56 21.45 117.31 21.45Q115.32 21.45 114.51 20.48Q113.93 19.79 113.93 18.63L110.41 18.63Q110.41 19.86 110.88 20.88Q111.04 21.22 111.26 21.53Q111.27 21.56 111.29 21.58Q112.14 22.8 113.72 23.51Q115.34 24.23 117.31 24.23Q120.15 24.23 121.82 22.97Q122.54 22.43 122.96 21.7Q123.5 20.75 123.5 19.5Q123.5 18.37 123.06 17.45Q122.72 16.75 122.13 16.17Q120.75 14.83 117.75 13.93Q116.13 13.44 115.29 12.87Q114.69 12.47 114.52 11.94Q114.45 11.72 114.45 11.48Q114.45 11.04 114.62 10.69Q114.8 10.32 115.16 10.04Q115.88 9.5 117.17 9.5Q118.5 9.5 119.24 10.15Q119.43 10.31 119.57 10.51Q119.98 11.1 119.98 11.97L123.5 11.97Q123.5 10.92 123.12 10.02Q122.95 9.61 122.71 9.23Q122.53 8.97 122.33 8.73Q121.61 7.88 120.49 7.36Q119.06 6.7 117.23 6.7Q115.41 6.7 113.95 7.31Q112.49 7.92 111.71 9Q111.4 9.44 111.21 9.93Q110.93 10.65 110.93 11.47Q110.93 12.27 111.2 12.97Q111.81 14.6 113.84 15.7Q114.91 16.27 116.74 16.86Q118.56 17.46 119.27 17.99Q119.51 18.18 119.67 18.42ZM65.04 24L68.56 24L68.56 6.93L65.04 6.93L65.04 13.85L58.19 13.85L58.19 6.93L54.67 6.93L54.67 24L58.19 24L58.19 16.68L65.04 16.68L65.04 24ZM75.14 16.6L81.89 16.6L81.89 13.85L75.14 13.85L75.14 9.78L83.04 9.78L83.04 6.93L71.63 6.93L71.63 24L83.07 24L83.07 21.17L75.14 21.17L75.14 16.6ZM96.11 21.17L88.64 21.17L88.64 6.93L85.13 6.93L85.13 24L96.11 24L96.11 21.17ZM109.11 21.17L101.64 21.17L101.64 6.93L98.13 6.93L98.13 24L109.11 24L109.11 21.17Z" fill="#FFFFFF" fill-opacity="1.000000" fill-rule="evenodd"/>
</svg>
