<svg width="109.027832" height="32.000000" viewBox="0 0 109.028 32" fill="none" xmlns="http://www.w3.org/2000/svg" xmlns:xlink="http://www.w3.org/1999/xlink">
	<desc>
			Created with Pixso.
	</desc>
	<defs/>
	<path id="Vector" d="M9.8 19.98L9.8 28.1C9.8 28.41 9.68 28.71 9.46 28.93C9.24 29.15 8.94 29.27 8.63 29.27C8.32 29.27 8.02 29.15 7.8 28.93C7.58 28.71 7.45 28.41 7.45 28.1L7.45 19.99C7.78 20.23 8.17 20.36 8.58 20.37C9.02 20.38 9.45 20.24 9.8 19.98ZM19.8 17.63C19.5 17.63 19.21 17.75 19 17.96C18.79 18.17 18.67 18.45 18.67 18.75L18.67 20.17C18.67 20.48 18.8 20.78 19.02 21C19.24 21.22 19.54 21.34 19.85 21.34C20.16 21.34 20.46 21.22 20.68 21C20.9 20.78 21.02 20.48 21.02 20.17L21.02 18.81C21.03 18.65 21 18.49 20.94 18.34C20.89 18.19 20.8 18.05 20.68 17.94C20.56 17.83 20.42 17.74 20.27 17.69C20.12 17.63 19.96 17.61 19.8 17.63ZM4.9 23.05C4.5 23.04 4.11 22.91 3.78 22.67L3.78 30.82C3.78 31.13 3.9 31.43 4.13 31.65C4.35 31.87 4.65 32 4.96 32C5.27 32 5.57 31.87 5.79 31.65C6.01 31.43 6.14 31.13 6.14 30.82L6.14 22.73C5.77 22.97 5.34 23.08 4.9 23.05ZM16.14 15.19C15.98 15.18 15.83 15.21 15.69 15.26C15.55 15.31 15.41 15.4 15.3 15.5C15.19 15.61 15.11 15.73 15.05 15.87C14.99 16.01 14.96 16.16 14.96 16.32L14.96 22.57C14.96 22.88 15.08 23.18 15.3 23.41C15.52 23.63 15.82 23.75 16.14 23.75C16.45 23.75 16.75 23.63 16.97 23.41C17.19 23.18 17.31 22.88 17.31 22.57L17.31 16.39C17.32 16.23 17.3 16.07 17.24 15.92C17.18 15.77 17.09 15.63 16.97 15.52C16.85 15.41 16.71 15.32 16.56 15.27C16.4 15.22 16.24 15.2 16.08 15.21L16.14 15.19ZM12.41 17.6C11.98 17.59 11.57 17.46 11.23 17.21L11.23 25.38C11.23 25.69 11.35 25.99 11.57 26.21C11.79 26.43 12.09 26.56 12.41 26.56C12.72 26.56 13.02 26.43 13.24 26.21C13.46 25.99 13.59 25.69 13.59 25.38L13.59 17.22C13.23 17.49 12.79 17.63 12.35 17.62L12.41 17.6ZM2.35 23.85L2.35 1.04C2.35 0.76 2.24 0.5 2.04 0.3C1.84 0.1 1.58 0 1.3 0L1.05 0C0.77 0 0.51 0.1 0.31 0.3C0.11 0.5 0 0.76 0 1.04L0 23.85C0 24.13 0.11 24.4 0.3 24.6C0.5 24.8 0.77 24.91 1.05 24.91L1.3 24.91C1.58 24.91 1.85 24.8 2.04 24.6C2.24 24.4 2.35 24.13 2.35 23.85ZM5.03 22.19L4.78 22.19C4.5 22.19 4.23 22.08 4.03 21.88C3.84 21.68 3.72 21.41 3.72 21.13L3.72 3.76C3.73 3.48 3.84 3.21 4.04 3.02C4.23 2.82 4.5 2.71 4.78 2.71L5.03 2.71C5.31 2.71 5.57 2.82 5.77 3.02C5.97 3.21 6.08 3.48 6.08 3.76L6.08 21.16C6.08 21.44 5.97 21.7 5.77 21.9C5.58 22.1 5.31 22.21 5.03 22.21L5.03 22.19ZM8.74 19.52L8.49 19.52C8.21 19.52 7.94 19.41 7.75 19.21C7.55 19.01 7.44 18.75 7.44 18.47L7.44 6.45C7.44 6.32 7.47 6.18 7.52 6.05C7.57 5.92 7.65 5.81 7.74 5.71C7.84 5.61 7.96 5.53 8.08 5.48C8.21 5.42 8.35 5.4 8.49 5.4L8.74 5.4C9.02 5.4 9.29 5.51 9.48 5.71C9.68 5.91 9.79 6.18 9.79 6.45L9.79 18.47C9.79 18.75 9.68 19.01 9.48 19.21C9.29 19.41 9.02 19.52 8.74 19.52ZM12.46 16.76L12.23 16.76C11.95 16.76 11.68 16.65 11.48 16.46C11.29 16.26 11.17 16 11.17 15.72L11.17 9.25C11.16 9.11 11.18 8.96 11.23 8.83C11.28 8.69 11.36 8.56 11.46 8.46C11.55 8.35 11.67 8.27 11.81 8.21C11.94 8.16 12.08 8.13 12.23 8.13L12.47 8.13C12.75 8.13 13.02 8.24 13.22 8.44C13.42 8.63 13.53 8.9 13.53 9.18L13.53 15.7C13.53 15.84 13.5 15.98 13.45 16.1C13.4 16.23 13.32 16.35 13.22 16.45C13.13 16.55 13.01 16.63 12.88 16.68C12.75 16.74 12.61 16.76 12.47 16.76L12.46 16.76ZM16.19 14.35L15.94 14.35C15.66 14.35 15.4 14.24 15.2 14.04C15 13.84 14.89 13.57 14.89 13.29L14.89 11.62C14.89 11.34 15 11.08 15.2 10.88C15.4 10.69 15.67 10.58 15.94 10.58L16.19 10.58C16.47 10.58 16.74 10.69 16.93 10.88C17.13 11.08 17.24 11.34 17.25 11.62L17.25 13.29C17.25 13.57 17.14 13.84 16.94 14.04C16.75 14.23 16.48 14.35 16.2 14.35L16.19 14.35Z" fill="#FFFFFF" fill-opacity="1.000000" fill-rule="nonzero"/>
	<path id="WAVES" d="M104.02 18.42Q104.32 18.87 104.32 19.52Q104.32 20.03 104.09 20.42Q103.92 20.72 103.61 20.94Q102.91 21.45 101.66 21.45Q99.67 21.45 98.85 20.48Q98.28 19.79 98.28 18.63L94.75 18.63Q94.75 19.86 95.23 20.88Q95.39 21.22 95.6 21.53Q95.62 21.56 95.64 21.58Q96.48 22.8 98.07 23.51Q99.69 24.23 101.66 24.23Q104.49 24.23 106.17 22.97Q106.89 22.43 107.3 21.7Q107.84 20.75 107.84 19.5Q107.84 18.37 107.41 17.45Q107.07 16.75 106.47 16.17Q105.1 14.83 102.1 13.93Q100.47 13.44 99.63 12.87Q99.04 12.47 98.87 11.94Q98.8 11.72 98.8 11.48Q98.8 11.04 98.97 10.69Q99.15 10.32 99.51 10.04Q100.23 9.5 101.52 9.5Q102.85 9.5 103.59 10.15Q103.78 10.31 103.92 10.51Q104.33 11.1 104.33 11.97L107.84 11.97Q107.84 10.92 107.47 10.02Q107.3 9.61 107.05 9.23Q106.88 8.97 106.68 8.73Q105.95 7.88 104.83 7.36Q103.4 6.7 101.57 6.7Q99.76 6.7 98.3 7.31Q96.84 7.92 96.06 9Q95.74 9.44 95.56 9.93Q95.28 10.65 95.28 11.47Q95.28 12.27 95.54 12.97Q96.16 14.6 98.19 15.7Q99.25 16.27 101.08 16.86Q102.91 17.46 103.61 17.99Q103.86 18.18 104.02 18.42ZM46.13 6.93L43.84 19.07L41.04 6.93L38.06 6.93L35.25 19.05L32.94 6.93L29.43 6.93L33.22 24L36.76 24L39.54 12.58L42.31 24L45.85 24L49.64 6.93L46.13 6.93ZM54.5 20.48L60.66 20.48L61.85 24L65.59 24L59.2 6.93L55.94 6.93L49.59 24L53.33 24L54.5 20.48ZM76.45 6.93L72.58 19.76L68.74 6.93L64.84 6.93L70.75 24L74.42 24L80.36 6.93L76.45 6.93ZM85.48 16.6L92.23 16.6L92.23 13.85L85.48 13.85L85.48 9.78L93.38 9.78L93.38 6.93L81.97 6.93L81.97 24L93.41 24L93.41 21.17L85.48 21.17L85.48 16.6ZM59.71 17.63L55.45 17.63L57.57 11.25L59.71 17.63Z" fill="#FFFFFF" fill-opacity="1.000000" fill-rule="evenodd"/>
</svg>
