<svg width="165.809570" height="32.000000" viewBox="0 0 165.81 32" fill="none" xmlns="http://www.w3.org/2000/svg" xmlns:xlink="http://www.w3.org/1999/xlink">
	<desc>
			Created with Pixso.
	</desc>
	<defs/>
	<path id="Vector" d="M37.4 32L50.32 32L18.32 0L5.4 0L37.4 32Z" fill="#FFFFFF" fill-opacity="1.000000" fill-rule="nonzero"/>
	<path id="Vector" d="M24.96 0L55.8 30.84L55.8 0L47.46 0L47.46 9.73L37.72 0L24.96 0Z" fill="#FFFFFF" fill-opacity="1.000000" fill-rule="nonzero"/>
	<path id="Vector" d="M0 1.07L0 31.99L8.34 31.99L8.34 22.26L18.08 31.99L30.92 31.99L0 1.07Z" fill="#FFFFFF" fill-opacity="1.000000" fill-rule="nonzero"/>
	<path id="ArtVenue" d="M68.8 20.48L74.96 20.48L76.14 24L79.88 24L73.5 6.93L70.24 6.93L63.89 24L67.62 24L68.8 20.48ZM109.1 6.93L105.23 19.76L101.39 6.93L97.48 6.93L103.4 24L107.07 24L113.01 6.93L109.1 6.93ZM94.65 11.32L94.65 8.2L91.26 8.2L91.26 11.32L89.41 11.32L89.41 13.8L91.26 13.8L91.26 20.63Q91.3 22.45 92.22 23.35Q93.13 24.23 94.89 24.23Q95.57 24.23 96.22 24.1Q96.59 24.03 96.95 23.92L96.95 21.36Q96.51 21.44 95.95 21.44Q95.19 21.44 94.92 21.14Q94.65 20.83 94.65 20.13L94.65 13.8L96.82 13.8L96.82 11.32L94.65 11.32ZM87.16 14.4Q87.69 14.4 88.38 14.49L88.43 11.23Q87.93 11.08 87.37 11.08Q86.67 11.08 86.09 11.34Q85.17 11.76 84.55 12.83L84.45 11.32L81.25 11.32L81.25 24L84.64 24L84.64 15.7Q84.8 15.36 85.04 15.11Q85.74 14.4 87.16 14.4ZM116.23 23.34Q117.7 24.23 119.72 24.23Q121.3 24.23 122.6 23.63Q123.64 23.14 124.34 22.35Q124.51 22.16 124.66 21.94L123 20.08Q122.57 20.63 122.01 20.97Q121.13 21.5 119.94 21.5Q119.01 21.5 118.31 21.09Q118.06 20.95 117.85 20.75Q117.63 20.55 117.46 20.32Q116.98 19.67 116.86 18.76L124.93 18.76L124.93 17.37Q124.93 14.36 123.44 12.72Q123.04 12.29 122.57 11.97Q121.25 11.08 119.34 11.08Q117.92 11.08 116.76 11.62Q116.5 11.75 116.25 11.9Q115.83 12.15 115.46 12.48Q114.67 13.18 114.16 14.22Q113.42 15.72 113.42 17.63L113.42 17.96Q113.42 20.07 114.39 21.56Q114.72 22.08 115.17 22.52Q115.66 22.99 116.23 23.34ZM130.07 12.78L129.97 11.32L126.78 11.32L126.78 24L130.17 24L130.17 15.05Q130.52 14.46 131.04 14.15Q131.58 13.83 132.31 13.83Q133.4 13.83 133.87 14.32Q134.34 14.81 134.34 15.89L134.34 24L137.73 24L137.73 15.8Q137.7 13.45 136.72 12.26Q136.57 12.08 136.39 11.92Q135.42 11.08 133.72 11.08Q132.43 11.08 131.43 11.62Q130.67 12.04 130.07 12.78ZM156.07 23.34Q157.54 24.23 159.56 24.23Q161.14 24.23 162.44 23.63Q163.49 23.14 164.19 22.35Q164.36 22.16 164.5 21.94L162.84 20.08Q162.41 20.63 161.85 20.97Q160.98 21.5 159.78 21.5Q158.85 21.5 158.16 21.09Q157.91 20.95 157.69 20.75Q157.47 20.55 157.3 20.32Q156.82 19.67 156.7 18.76L164.77 18.76L164.77 17.37Q164.77 14.36 163.28 12.72Q162.88 12.29 162.41 11.97Q161.1 11.08 159.18 11.08Q157.77 11.08 156.6 11.62Q156.34 11.75 156.1 11.9Q155.67 12.15 155.3 12.48Q154.51 13.18 154 14.22Q153.27 15.72 153.27 17.63L153.27 17.96Q153.27 20.07 154.23 21.56Q154.57 22.08 155.02 22.52Q155.5 22.99 156.07 23.34ZM74.01 17.63L69.75 17.63L71.87 11.25L74.01 17.63ZM146.91 23.57Q147.46 23.23 147.89 22.71L147.98 24L151.17 24L151.17 11.32L147.77 11.32L147.77 20.29Q147.59 20.63 147.32 20.87Q146.64 21.49 145.4 21.49Q144.58 21.49 144.14 21.08Q143.6 20.59 143.6 19.51L143.6 11.32L140.21 11.32L140.21 19.62Q140.23 21.89 141.31 23.06Q141.46 23.23 141.64 23.37Q142.68 24.23 144.42 24.23Q145.87 24.23 146.91 23.57ZM118.21 14.09Q118.69 13.82 119.33 13.82Q120.25 13.82 120.81 14.27Q120.91 14.35 120.99 14.44Q121.01 14.46 121.02 14.47Q121.58 15.08 121.6 16.18L121.6 16.45L116.89 16.45Q117.07 15.18 117.69 14.5Q117.92 14.25 118.21 14.09ZM158.05 14.09Q158.53 13.82 159.17 13.82Q160.09 13.82 160.66 14.27Q160.75 14.35 160.84 14.44Q160.85 14.46 160.87 14.47Q161.42 15.08 161.45 16.18L161.45 16.45L156.73 16.45Q156.91 15.18 157.54 14.5Q157.77 14.25 158.05 14.09Z" fill="#FFFFFF" fill-opacity="1.000000" fill-rule="evenodd"/>
</svg>
