<svg width="426.000000" height="828.000000" viewBox="0 0 426 828" fill="none" xmlns="http://www.w3.org/2000/svg" xmlns:xlink="http://www.w3.org/1999/xlink">
	<desc>
			Created with Pixso.
	</desc>
	<defs>
		<filter id="filter_352_42139_dd" x="0.000000" y="0.000000" width="426.000000" height="828.000000" filterUnits="userSpaceOnUse" color-interpolation-filters="sRGB">
			<feFlood flood-opacity="0" result="BackgroundImageFix"/>
			<feColorMatrix in="SourceAlpha" type="matrix" values="0 0 0 0 0 0 0 0 0 0 0 0 0 0 0 0 0 0 127 0" result="hardAlpha"/>
			<feOffset dx="0" dy="0"/>
			<feGaussianBlur stdDeviation="5"/>
			<feComposite in2="hardAlpha" operator="out" k2="-1" k3="1"/>
			<feColorMatrix type="matrix" values="0 0 0 0 0 0 0 0 0 0 0 0 0 0 0 0 0 0 0.071 0"/>
			<feBlend mode="normal" in2="BackgroundImageFix" result="effect_dropShadow_1"/>
			<feColorMatrix in="SourceAlpha" type="matrix" values="0 0 0 0 0 0 0 0 0 0 0 0 0 0 0 0 0 0 127 0" result="hardAlpha"/>
			<feMorphology radius="-12" in="" result="effect_dropShadow_1"/>
			<feOffset dx="0" dy="25"/>
			<feGaussianBlur stdDeviation="16.6667"/>
			<feComposite in2="hardAlpha" operator="out" k2="-1" k3="1"/>
			<feColorMatrix type="matrix" values="0 0 0 0 0 0 0 0 0 0 0 0 0 0 0 0 0 0 0.25 0"/>
			<feBlend mode="normal" in2="effect_dropShadow_1" result="effect_dropShadow_2"/>
			<feBlend mode="normal" in="SourceGraphic" in2="effect_dropShadow_2" result="shape"/>
		</filter>
		<clipPath id="clip20_604">
			<rect id="icon / ionicons / outline / heart-outline" rx="0.000000" width="47.000000" height="47.000000" transform="translate(308.500000 286.500000)" fill="white" fill-opacity="0"/>
		</clipPath>
		<clipPath id="clip20_623">
			<rect id="icon / ionicons / outline / pulse-outline" rx="0.000000" width="47.000000" height="47.000000" transform="translate(70.500000 693.500000)" fill="white" fill-opacity="0"/>
		</clipPath>
		<clipPath id="clip20_626">
			<rect id="icon / ionicons / outline / search-outline" rx="0.000000" width="47.000000" height="47.000000" transform="translate(189.500000 693.500000)" fill="white" fill-opacity="0"/>
		</clipPath>
		<clipPath id="clip20_630">
			<rect id="icon / ionicons / outline / menu-outline" rx="0.000000" width="47.000000" height="47.000000" transform="translate(308.500000 693.500000)" fill="white" fill-opacity="0"/>
		</clipPath>
		<clipPath id="clip352_42139">
			<rect id="Mobile-App-Placeholder-2" rx="49.500000" width="349.000000" height="749.000000" transform="translate(38.500000 15.500000)" fill="white" fill-opacity="0"/>
		</clipPath>
	</defs>
	<g filter="url(#filter_352_42139_dd)">
		<rect id="Mobile-App-Placeholder-2" rx="49.500000" width="349.000000" height="749.000000" transform="translate(38.500000 15.500000)" fill="#FFFFFF" fill-opacity="0"/>
		<g clip-path="url(#clip352_42139)">
			<path id="Rectangle 1" d="M38 15L388 15L388 765L38 765L38 15Z" fill="#DBEAFE" fill-opacity="1.000000" fill-rule="nonzero"/>
			<path id="Ellipse 1" d="M294 548C294 574.51 272.51 596 246 596C219.49 596 198 574.51 198 548C198 521.49 219.49 500 246 500C272.51 500 294 521.49 294 548Z" fill="#FFFFFF" fill-opacity="1.000000" fill-rule="nonzero"/>
			<path id="Ellipse 1 (Stroke)" d="M246 593C270.85 593 291 572.85 291 548C291 523.14 270.85 503 246 503C221.14 503 201 523.14 201 548C201 572.85 221.14 593 246 593ZM246 596C272.51 596 294 574.51 294 548C294 521.49 272.51 500 246 500C219.49 500 198 521.49 198 548C198 574.51 219.49 596 246 596Z" fill="#BFDBFE" fill-opacity="1.000000" fill-rule="evenodd"/>
			<path id="Ellipse 2" d="M422 548C422 574.51 400.51 596 374 596C347.49 596 326 574.51 326 548C326 521.49 347.49 500 374 500C400.51 500 422 521.49 422 548Z" fill="#BFDBFE" fill-opacity="1.000000" fill-rule="nonzero"/>
			<path id="Ellipse 2 (Stroke)" d="M374 593C398.85 593 419 572.85 419 548C419 523.14 398.85 503 374 503C349.14 503 329 523.14 329 548C329 572.85 349.14 593 374 593ZM374 596C400.51 596 422 574.51 422 548C422 521.49 400.51 500 374 500C347.49 500 326 521.49 326 548C326 574.51 347.49 596 374 596Z" fill="#FFFFFF" fill-opacity="1.000000" fill-rule="evenodd"/>
			<path id="Ellipse 3" d="M166 548C166 574.51 144.5 596 118 596C91.49 596 70 574.51 70 548C70 521.49 91.49 500 118 500C144.5 500 166 521.49 166 548Z" fill="#FACC15" fill-opacity="1.000000" fill-rule="nonzero"/>
			<path id="Ellipse 3 (Stroke)" d="M118 593C142.85 593 163 572.85 163 548C163 523.14 142.85 503 118 503C93.14 503 73 523.14 73 548C73 572.85 93.14 593 118 593ZM118 596C144.5 596 166 574.51 166 548C166 521.49 144.5 500 118 500C91.49 500 70 521.49 70 548C70 574.51 91.49 596 118 596Z" fill="#FFFFFF" fill-opacity="1.000000" fill-rule="evenodd"/>
			<path id="Title" d="M70 468C70 463.58 73.58 460 78 460L148 460C152.41 460 156 463.58 156 468C156 472.41 152.41 476 148 476L78 476C73.58 476 70 472.41 70 468Z" fill="#BFDBFE" fill-opacity="1.000000" fill-rule="nonzero"/>
			<path id="Title" d="M172 468C172 463.58 175.58 460 180 460L212 460C216.41 460 220 463.58 220 468C220 472.41 216.41 476 212 476L180 476C175.58 476 172 472.41 172 468Z" fill="#BFDBFE" fill-opacity="1.000000" fill-rule="nonzero"/>
			<rect id="icon / ionicons / outline / heart-outline" rx="0.000000" width="47.000000" height="47.000000" transform="translate(308.500000 286.500000)" fill="#FFFFFF" fill-opacity="0"/>
			<g clip-path="url(#clip20_604)">
				<path id="Vector (Stroke)" d="M312.5 302.56C312.55 296.85 317.09 292 322.91 292C326.48 292 329.11 293.76 330.79 295.43C331.26 295.89 331.66 296.36 332 296.78C332.33 296.36 332.73 295.89 333.2 295.43C334.88 293.76 337.51 292 341.08 292C346.91 292 351.44 296.85 351.5 302.56L351.5 302.56C351.61 313.68 342.67 321.38 333.68 327.48C333.19 327.81 332.6 328 332 328C331.39 328 330.81 327.81 330.31 327.48C321.32 321.38 312.38 313.68 312.5 302.56L312.5 302.56ZM333.34 300.17C333.08 300.68 332.56 301 332 301C331.43 301 330.91 300.68 330.66 300.17C330.66 300.17 330.65 300.17 330.65 300.17C330.65 300.16 330.65 300.16 330.64 300.15C330.64 300.14 330.64 300.14 330.64 300.13C330.62 300.1 330.59 300.05 330.55 299.98C330.47 299.85 330.35 299.64 330.18 299.39C329.85 298.89 329.35 298.22 328.68 297.56C327.33 296.23 325.42 295 322.91 295C318.84 295 315.54 298.41 315.5 302.59L333.34 300.17ZM333.34 300.17C333.34 300.17 333.34 300.17 333.34 300.17C333.34 300.16 333.35 300.15 333.35 300.13C333.37 300.1 333.4 300.05 333.44 299.98C333.52 299.85 333.64 299.64 333.81 299.39C334.14 298.89 334.64 298.22 335.31 297.56C336.66 296.23 338.57 295 341.08 295C345.15 295 348.45 298.41 348.5 302.59C348.59 311.96 341.06 318.84 332 324.99L332 325L331.99 324.99C322.93 318.84 315.4 311.96 315.5 302.59L333.34 300.17Z" fill="#FFFFFF" fill-opacity="1.000000" fill-rule="evenodd"/>
			</g>
			<path id="Title" d="M70 310C70 305.58 73.58 302 78 302L132 302C136.41 302 140 305.58 140 310C140 314.41 136.41 318 132 318L78 318C73.58 318 70 314.41 70 310Z" fill="#BFDBFE" fill-opacity="1.000000" fill-rule="nonzero"/>
			<path id="Title" d="M156 310C156 305.58 159.58 302 164 302L254 302C258.41 302 262 305.58 262 310C262 314.41 258.41 318 254 318L164 318C159.58 318 156 314.41 156 310Z" fill="#BFDBFE" fill-opacity="1.000000" fill-rule="nonzero"/>
			<path id="Rectangle 4" d="M70 348C70 344.68 72.68 342 76 342L160 342C163.31 342 166 344.68 166 348C166 351.31 163.31 354 160 354L76 354C72.68 354 70 351.31 70 348Z" fill="#FFFFFF" fill-opacity="1.000000" fill-rule="nonzero"/>
			<path id="Rectangle 6" d="M70 376C70 372.68 72.68 370 76 370L205 370C208.31 370 211 372.68 211 376C211 379.31 208.31 382 205 382L76 382C72.68 382 70 379.31 70 376Z" fill="#FFFFFF" fill-opacity="1.000000" fill-rule="nonzero"/>
			<path id="Rectangle 5" d="M182 348C182 344.68 184.68 342 188 342L288 342C291.31 342 294 344.68 294 348C294 351.31 291.31 354 288 354L188 354C184.68 354 182 351.31 182 348Z" fill="#FFFFFF" fill-opacity="1.000000" fill-rule="nonzero"/>
			<path id="Rectangle 8" d="M70 78C70 66.95 78.95 58 90 58L336 58C347.04 58 356 66.95 356 78L356 234C356 245.04 347.04 254 336 254L90 254C78.95 254 70 245.04 70 234L70 78Z" fill="#FFFFFF" fill-opacity="1.000000" fill-rule="nonzero"/>
			<mask id="mask20_614" mask-type="alpha" maskUnits="userSpaceOnUse" x="70.000000" y="58.000000" width="286.000000" height="196.000000">
				<path id="Rectangle 3" d="M70 78C70 66.95 78.95 58 90 58L336 58C347.04 58 356 66.95 356 78L356 234C356 245.04 347.04 254 336 254L90 254C78.95 254 70 245.04 70 234L70 78Z" fill="#FFFFFF" fill-opacity="1.000000" fill-rule="nonzero"/>
			</mask>
			<g mask="url(#mask20_614)">
				<path id="Rectangle 7" d="M70 58L246 58L70 226L70 58Z" fill="#BFDBFE" fill-opacity="1.000000" fill-rule="nonzero"/>
			</g>
			<g mask="url(#mask20_614)">
				<path id="Ellipse 3" d="M402 234C402 268.24 374.24 296 340 296C305.75 296 278 268.24 278 234C278 199.75 305.75 172 340 172C374.24 172 402 199.75 402 234Z" fill="#FACC15" fill-opacity="1.000000" fill-rule="nonzero"/>
			</g>
			<g mask="url(#mask20_614)">
				<path id="Ellipse 5" d="M340 181C340 215.79 311.79 244 277 244C242.2 244 214 215.79 214 181C214 146.2 242.2 118 277 118C311.79 118 340 146.2 340 181Z" fill="#FFFFFF" fill-opacity="1.000000" fill-rule="nonzero"/>
			</g>
			<g mask="url(#mask20_614)">
				<path id="Ellipse 5 (Stroke)" d="M277 234C306.27 234 330 210.27 330 181C330 151.72 306.27 128 277 128C247.72 128 224 151.72 224 181C224 210.27 247.72 234 277 234ZM277 244C311.79 244 340 215.79 340 181C340 146.2 311.79 118 277 118C242.2 118 214 146.2 214 181C214 215.79 242.2 244 277 244Z" fill="#DBEAFE" fill-opacity="1.000000" fill-rule="evenodd"/>
			</g>
			<rect id="icon / ionicons / outline / pulse-outline" rx="0.000000" width="47.000000" height="47.000000" transform="translate(70.500000 693.500000)" fill="#FFFFFF" fill-opacity="0"/>
			<g clip-path="url(#clip20_623)">
				<path id="Vector (Stroke)" d="M86.56 697.5C87.27 697.53 87.86 698.05 87.97 698.75L92.88 728.19L97.05 713.58C97.23 712.95 97.81 712.51 98.46 712.5C99.12 712.48 99.71 712.9 99.92 713.52L102.58 721.5L107.5 721.5C108.32 721.5 109 722.17 109 723C109 723.82 108.32 724.5 107.5 724.5L101.5 724.5C100.85 724.5 100.28 724.08 100.07 723.47L98.61 719.07L93.94 735.41C93.74 736.08 93.11 736.53 92.41 736.49C91.71 736.45 91.13 735.93 91.02 735.24L86.2 706.36L81.95 723.36C81.78 724.03 81.18 724.5 80.5 724.5L74.5 724.5C73.67 724.5 73 723.82 73 723C73 722.17 73.67 721.5 74.5 721.5L79.32 721.5L85.04 698.63C85.21 697.94 85.84 697.47 86.56 697.5Z" fill="#FFFFFF" fill-opacity="1.000000" fill-rule="evenodd"/>
				<path id="Vector (Stroke)" d="M110.5 721.5C109.67 721.5 109 722.17 109 723C109 723.82 109.67 724.5 110.5 724.5C111.32 724.5 112 723.82 112 723C112 722.17 111.32 721.5 110.5 721.5ZM106 723C106 720.51 108.01 718.5 110.5 718.5C112.98 718.5 115 720.51 115 723C115 725.48 112.98 727.5 110.5 727.5C108.01 727.5 106 725.48 106 723Z" fill="#FFFFFF" fill-opacity="1.000000" fill-rule="evenodd"/>
			</g>
			<rect id="icon / ionicons / outline / search-outline" rx="0.000000" width="47.000000" height="47.000000" transform="translate(189.500000 693.500000)" fill="#FFFFFF" fill-opacity="0"/>
			<g clip-path="url(#clip20_626)">
				<path id="Vector (Stroke)" d="M200.71 700.23C203.38 698.45 206.51 697.5 209.72 697.5L209.72 699L209.72 697.5C214.03 697.5 218.15 699.21 221.2 702.25C224.24 705.29 225.95 709.42 225.95 713.72L225.95 713.72C225.95 716.93 225 720.07 223.22 722.74C221.43 725.41 218.9 727.49 215.93 728.71C212.97 729.94 209.7 730.26 206.56 729.64C203.41 729.01 200.52 727.47 198.25 725.2C195.98 722.93 194.43 720.04 193.81 716.89C193.18 713.74 193.5 710.48 194.73 707.51C195.96 704.55 198.04 702.01 200.71 700.23ZM209.72 700.5C213.23 700.5 216.6 701.89 219.08 704.37C221.56 706.85 222.95 710.21 222.95 713.72L209.72 700.5ZM209.72 700.5C207.11 700.5 204.55 701.27 202.37 702.72C200.2 704.18 198.5 706.24 197.5 708.66C196.5 711.08 196.24 713.74 196.75 716.3C197.26 718.87 198.52 721.23 200.37 723.08C202.22 724.93 204.58 726.19 207.14 726.7C209.71 727.21 212.37 726.94 214.78 725.94C217.2 724.94 219.27 723.25 220.72 721.07C222.17 718.9 222.95 716.34 222.95 713.72L209.72 700.5Z" fill="#FFFFFF" fill-opacity="1.000000" fill-rule="evenodd"/>
				<path id="Vector (Stroke)" d="M219.65 723.65C220.24 723.06 221.19 723.06 221.77 723.65L232.06 733.93C232.64 734.52 232.64 735.47 232.06 736.06C231.47 736.64 230.52 736.64 229.93 736.06L219.65 725.77C219.06 725.19 219.06 724.24 219.65 723.65Z" fill="#FFFFFF" fill-opacity="1.000000" fill-rule="evenodd"/>
			</g>
			<rect id="icon / ionicons / outline / menu-outline" rx="0.000000" width="47.000000" height="47.000000" transform="translate(308.500000 693.500000)" fill="#FFFFFF" fill-opacity="0"/>
			<g clip-path="url(#clip20_630)">
				<path id="Vector (Stroke)" d="M314 708C314 707.17 314.67 706.5 315.5 706.5L348.5 706.5C349.32 706.5 350 707.17 350 708C350 708.82 349.32 709.5 348.5 709.5L315.5 709.5C314.67 709.5 314 708.82 314 708Z" fill="#FFFFFF" fill-opacity="1.000000" fill-rule="evenodd"/>
				<path id="Vector (Stroke)" d="M314 717C314 716.17 314.67 715.5 315.5 715.5L348.5 715.5C349.32 715.5 350 716.17 350 717C350 717.82 349.32 718.5 348.5 718.5L315.5 718.5C314.67 718.5 314 717.82 314 717Z" fill="#FFFFFF" fill-opacity="1.000000" fill-rule="evenodd"/>
				<path id="Vector (Stroke)" d="M314 726C314 725.17 314.67 724.5 315.5 724.5L348.5 724.5C349.32 724.5 350 725.17 350 726C350 726.82 349.32 727.5 348.5 727.5L315.5 727.5C314.67 727.5 314 726.82 314 726Z" fill="#FFFFFF" fill-opacity="1.000000" fill-rule="evenodd"/>
			</g>
			<rect id="Bottom-Menu" rx="0.000000" width="349.000000" height="95.000000" transform="translate(38.500000 669.500000)" stroke="#FFFFFF" stroke-opacity="1.000000" stroke-width="1.000000"/>
		</g>
	</g>
</svg>
